<?xml version="1.0"?>
<svg xmlns="http://www.w3.org/2000/svg" height="512px" viewBox="0 0 512 512.01034" width="512px"><g><path d="m199.886719 91.429688-13.421875 83.71875-10.917969 67.867187h43.886719v-23.585937c.011718-2.304688.246094-4.601563.695312-6.859376.136719-.722656.367188-1.398437.550782-2.101562.355468-1.472656.804687-2.917969 1.34375-4.332031.308593-.777344.65625-1.519531 1.023437-2.269531.589844-1.257813 1.253906-2.480469 1.992187-3.65625.4375-.703126.914063-1.398438 1.371094-2.074219.847656-1.148438 1.765625-2.246094 2.742188-3.285157.523437-.566406 1.007812-1.152343 1.554687-1.691406 1.242188-1.171875 2.5625-2.261718 3.949219-3.253906.386719-.273438.722656-.601562 1.117188-.867188 1.820312-1.21875 3.75-2.269531 5.757812-3.136718.539062-.230469 1.117188-.375 1.664062-.578125 1.195313-.5 2.417969-.933594 3.660157-1.296875v-92.597656zm0 0" data-original="#000000" class="active-path" data-old_color="#000000" fill="#FFFFFF"/><path d="m100.578125 475.429688c35.34375 0 64-28.65625 64-64 0-35.347657-28.65625-64-64-64-35.347656 0-64 28.652343-64 64 .039063 35.328124 28.667969 63.957031 64 64zm0-109.714844c5.046875 0 9.140625 4.09375 9.140625 9.140625 0 5.050781-4.09375 9.144531-9.140625 9.144531-15.148437 0-27.429687 12.28125-27.429687 27.429688 0 5.046874-4.09375 9.140624-9.140626 9.140624-5.050781 0-9.144531-4.09375-9.144531-9.140624.03125-25.234376 20.480469-45.683594 45.714844-45.714844zm0 0" data-original="#000000" class="active-path" data-old_color="#000000" fill="#FFFFFF"/><path d="m85.738281 102.398438c-1.898437 2.75-3.601562 5.628906-5.101562 8.613281-.109375.230469-.199219.46875-.3125.695312-1.554688 3.179688-2.867188 6.472657-3.929688 9.847657-10.058593 36.882812-23.414062 85.941406-35.65625 130.53125.4375-.355469.914063-.667969 1.378907-1.015626 1.71875-1.332031 3.464843-2.640624 5.277343-3.875.832031-.558593 1.691407-1.058593 2.539063-1.589843 1.546875-.988281 3.109375-1.957031 4.71875-2.863281.96875-.539063 1.964844-1.042969 2.953125-1.554688 1.554687-.804688 3.117187-1.589844 4.71875-2.320312 1.058593-.476563 2.140625-.914063 3.226562-1.382813 1.601563-.667969 3.21875-1.304687 4.863281-1.898437 1.125-.402344 2.25-.789063 3.394532-1.164063 1.671875-.539063 3.371094-1.03125 5.082031-1.488281 1.160156-.320313 2.3125-.632813 3.492187-.914063 1.828126-.421875 3.65625-.777343 5.429688-1.117187 1.144531-.210938 2.277344-.449219 3.429688-.628906 2.019531-.3125 4.078124-.53125 6.136718-.742188 1.003906-.101562 1.980469-.246094 2.996094-.320312 3.082031-.238282 6.199219-.375 9.363281-.375 4.714844.03125 9.421875.335937 14.097657.914062 1.453124.175781 2.890624.441406 4.335937.660156 3.28125.5 6.527344 1.105469 9.761719 1.875 1.585937.363282 3.160156.765625 4.71875 1.207032 3.226562.914062 6.398437 1.9375 9.554687 3.097656 1.351563.492187 2.742188.914062 4.058594 1.472656.503906.199219 1.015625.347656 1.519531.558594l24.382813-152.054688c-.960938-.660156-1.910157-1.347656-2.878907-1.957031-1.21875-.761719-2.441406-1.519531-3.65625-2.203125-1.886718-1.035156-3.8125-1.929688-5.769531-2.746094-1.234375-.546875-2.460937-1.132812-3.730469-1.617187-2.1875-.824219-4.472656-1.480469-6.765624-2.113281-1.136719-.308594-2.222657-.691407-3.382813-.914063-3.617187-.832031-7.28125-1.445313-10.972656-1.828125-1.902344-.195312-3.8125-.296875-5.722657-.300781h-.367187c-3.269531.023437-6.527344.332031-9.746094.914062h-.339843c-3.183594.585938-6.316407 1.429688-9.371094 2.515625l-.710938.226563c-2.984375 1.105469-5.890625 2.421875-8.6875 3.941406l-.847656.457031c-2.769531 1.558594-5.429688 3.304688-7.957031 5.230469l-.859375.667969c-2.511719 1.96875-4.882813 4.105468-7.101563 6.398437-.265625.273438-.523437.558594-.789062.839844-2.214844 2.363281-4.273438 4.871094-6.152344 7.507813zm0 0" data-original="#000000" class="active-path" data-old_color="#000000" fill="#FFFFFF"/><path d="m155.433594 0c-44.277344 0-60.34375 50.679688-64.273438 66.222656-.382812 1.535156-.914062 3.472656-1.492187 5.777344.777343-.601562 1.601562-1.125 2.398437-1.691406.792969-.566406 1.332032-.914063 2.011719-1.417969 1.324219-.914063 2.660156-1.746094 4.019531-2.566406.769532-.46875 1.539063-.917969 2.324219-1.347657 1.347656-.761718 2.703125-1.476562 4.070313-2.148437.832031-.410156 1.671874-.792969 2.511718-1.167969 1.371094-.621094 2.742188-1.226562 4.160156-1.765625.914063-.339843 1.765626-.640625 2.652344-.914062 1.40625-.492188 2.804688-.96875 4.234375-1.378907.914063-.265624 1.871094-.476562 2.804688-.714843 1.417969-.347657 2.824219-.703125 4.253906-.976563 1.011719-.195312 2.046875-.3125 3.070313-.46875 1.363281-.199218 2.742187-.429687 4.097656-.546875 1.234375-.121093 2.484375-.136719 3.730468-.191406 1.242188-.054687 2.347657-.15625 3.535157-.148437 2.445312.007812 4.886719.132812 7.316406.382812 4.632813.484375 9.230469 1.253906 13.769531 2.304688 1.480469.339843 2.851563.914062 4.296875 1.289062 2.851563.804688 5.714844 1.59375 8.429688 2.644531 1.636719.640625 3.191406 1.480469 4.789062 2.203125 2.386719 1.085938 4.792969 2.148438 7.085938 3.445313 1.644531.914062 3.226562 2.058593 4.835937 3.101562s3.429688 2.039063 5.09375 3.253907h23.769532l.503906-9.425782c-.175782-35.234375-28.765625-63.7148435-64-63.753906zm0 0" data-original="#000000" class="active-path" data-old_color="#000000" fill="#FFFFFF"/><path d="m274.292969 265.144531c0 10.097657-8.1875 18.285157-18.285157 18.285157-10.101562 0-18.289062-8.1875-18.289062-18.285157 0-10.101562 8.1875-18.289062 18.289062-18.289062 10.097657 0 18.285157 8.1875 18.285157 18.289062zm0 0" data-original="#000000" class="active-path" data-old_color="#000000" fill="#FFFFFF"/><path d="m237.71875 219.429688v14.050781c1.25-.714844 2.535156-1.355469 3.859375-1.917969l.257813-.128906c1.960937-.800782 3.988281-1.433594 6.058593-1.882813.511719-.121093 1.027344-.21875 1.546875-.3125 4.332032-.890625 8.796875-.890625 13.128906 0 .519532.09375 1.035157.191407 1.546876.3125 2.070312.449219 4.097656 1.082031 6.058593 1.882813l.257813.128906c1.324218.5625 2.609375 1.203125 3.859375 1.917969v-14.050781c0-10.101563-8.1875-18.285157-18.285157-18.285157-10.101562 0-18.289062 8.183594-18.289062 18.285157zm0 0" data-original="#000000" class="active-path" data-old_color="#000000" fill="#FFFFFF"/><path d="m430.34375 108.460938c-.167969-.300782-.304688-.601563-.46875-.914063-.308594-.53125-.65625-1.03125-.976562-1.554687-12.46875-21.832032-36.320313-34.617188-61.40625-32.914063-3.691407.382813-7.355469.996094-10.96875 1.828125-1.164063.257812-2.242188.648438-3.367188.914062-2.300781.632813-4.570312 1.300782-6.773438 2.121094-1.269531.476563-2.488281 1.0625-3.722656 1.609375-1.9375.859375-3.855468 1.757813-5.722656 2.742188-1.25.6875-2.484375 1.457031-3.710938 2.234375-.914062.59375-1.882812 1.269531-2.824218 1.917968l12.5625 78.300782 11.828125 73.882812c.625-.257812 1.261719-.4375 1.886719-.6875 1.425781-.574218 2.867187-1.050781 4.3125-1.570312 3.019531-1.089844 6.0625-2.078125 9.144531-2.925782 1.589843-.441406 3.179687-.851562 4.789062-1.226562 3.164063-.738281 6.402344-1.324219 9.566407-1.828125 1.441406-.21875 2.867187-.492187 4.3125-.65625 4.625-.574219 9.277343-.882813 13.933593-.917969 3.082031 0 6.128907.128906 9.144531.359375.96875.0625 1.917969.191407 2.878907.292969 2.03125.191406 4.042969.410156 6.027343.703125 1.113282.171875 2.210938.375 3.308594.574219 1.828125.324218 3.613282.683594 5.355469 1.082031 1.125.253906 2.234375.527344 3.339844.820313 1.726562.449218 3.417969.914062 5.101562 1.464843 1.070313.335938 2.140625.667969 3.191407 1.03125 1.71875.59375 3.398437 1.253907 5.0625 1.929688.914062.382812 1.902343.742187 2.835937 1.152343 1.957031.859376 3.859375 1.828126 5.742187 2.742188.585938.300781 1.195313.566406 1.773438.914062 2.421875 1.308594 4.773438 2.742188 7.066406 4.195313.648438.421875 1.253906.917969 1.894532 1.335937 1.625 1.105469 3.234374 2.230469 4.78125 3.4375.226562.175782.484374.332032.710937.511719-21.101563-76.644531-30.738281-112.007812-36.753906-134.910156-1.109375-2.746094-2.398438-5.414063-3.855469-7.992187zm0 0" data-original="#000000" class="active-path" data-old_color="#000000" fill="#FFFFFF"/><path d="m421.300781 66.210938c-3.878906-15.53125-19.988281-66.210938-64.265625-66.210938-35.332031.0390625-63.960937 28.671875-64 64l.503906 9.144531h23.832032c1.648437-1.21875 3.402344-2.167969 5.101562-3.265625 1.566406-1.003906 3.101563-2.101562 4.710938-3.007812 2.339844-1.324219 4.800781-2.414063 7.25-3.519532 1.554687-.703124 3.0625-1.527343 4.664062-2.148437 2.742188-1.078125 5.722656-1.902344 8.65625-2.742187 1.382813-.386719 2.742188-.914063 4.113282-1.246094 4.519531-1.058594 9.101562-1.835938 13.714843-2.320313 2.441407-.257812 4.882813-.375 7.316407-.394531.648437 0 1.289062 0 1.945312.054688 1.773438 0 3.539062.09375 5.304688.246093.765624.066407 1.535156.175781 2.304687.265625 1.636719.191406 3.253906.421875 4.871094.714844.785156.144531 1.574219.308594 2.359375.476562 1.589844.34375 3.175781.738282 4.753906 1.175782.742188.210937 1.480469.421875 2.222656.652344 1.644532.511718 3.253906 1.097656 4.863282 1.707031.632812.25 1.269531.46875 1.894531.722656 1.828125.769531 3.65625 1.605469 5.484375 2.515625.355468.171875.722656.328125 1.078125.511719 4.351562 2.269531 8.5 4.910156 12.398437 7.890625l.320313.21875c-.175781-.640625-.339844-1.308594-.503907-1.976563zm0 0" data-original="#000000" class="active-path" data-old_color="#000000" fill="#FFFFFF"/><path d="m265.148438 91.429688v92.578124c1.242187.367188 2.464843.800782 3.65625 1.300782.550781.199218 1.125.347656 1.664062.574218 2.011719.871094 3.941406 1.917969 5.761719 3.136719.390625.265625.730469.59375 1.113281.867188 1.390625.996093 2.710938 2.082031 3.953125 3.257812.546875.539063 1.03125 1.121094 1.550781 1.691407.980469 1.035156 1.894532 2.132812 2.746094 3.28125.484375.675781.914062 1.371093 1.371094 2.074218.734375 1.179688 1.402344 2.398438 1.992187 3.65625.367188.75.710938 1.492188 1.023438 2.269532.539062 1.414062.988281 2.863281 1.34375 4.332031.183593.703125.410156 1.382812.550781 2.105469.453125 2.261718.6875 4.566406.703125 6.875v23.585937h44.40625l-11.492187-71.960937-12.800782-79.625zm0 0" data-original="#000000" class="active-path" data-old_color="#000000" fill="#FFFFFF"/><path d="m26.054688 305.316406c-1.703126 6.207032-3.308594 12.105469-4.828126 17.628906.21875-.203124.464844-.367187.6875-.558593 2.4375-2.15625 4.953126-4.234375 7.570313-6.171875.234375-.183594.484375-.328125.71875-.503906 2.398437-1.753907 4.867187-3.417969 7.378906-4.992188.871094-.539062 1.746094-1.042969 2.625-1.554688 1.992188-1.179687 4.023438-2.300781 6.089844-3.363281.914063-.484375 1.890625-.976562 2.851563-1.433593 2.324218-1.117188 4.691406-2.148438 7.085937-3.121094.648437-.261719 1.296875-.566406 1.957031-.8125 3.046875-1.167969 6.148438-2.210938 9.308594-3.125.777344-.230469 1.570312-.402344 2.355469-.613282 2.414062-.648437 4.855469-1.234374 7.316406-1.726562 1.078125-.222656 2.167969-.414062 3.246094-.597656 2.332031-.402344 4.675781-.734375 7.03125-.996094 1.023437-.109375 2.027343-.246094 3.0625-.328125 3.328125-.292969 6.683593-.476563 10.066406-.476563 3.65625 0 7.242187.230469 10.816406.550782.914063.082031 1.828125.171875 2.742188.28125 3.328125.375 6.609375.859375 9.835937 1.5l.6875.121094c3.417969.703124 6.773438 1.605468 10.054688 2.605468.851562.246094 1.683594.519532 2.523437.792969 2.945313.914063 5.851563 2.011719 8.695313 3.191406.359375.148438.742187.273438 1.097656.429688 3.136719 1.335937 6.191406 2.835937 9.144531 4.425781.75.394531 1.480469.8125 2.210938 1.226562 2.585937 1.441407 5.113281 2.964844 7.582031 4.570313.429688.28125.914062.539063 1.289062.824219 2.742188 1.890625 5.484376 3.921875 8.054688 6.03125.636719.523437 1.261719 1.050781 1.882812 1.582031 2.195313 1.828125 4.328126 3.757813 6.398438 5.789063.441406.429687.914062.839843 1.316406 1.269531 2.351563 2.367187 4.574219 4.847656 6.738282 7.40625.511718.621093 1.007812 1.253906 1.507812 1.875 1.769531 2.195312 3.453125 4.441406 5.046875 6.746093.414063.585938.84375 1.160157 1.234375 1.757813 1.621094 2.410156 3.175781 4.878906 4.574219 7.421875l.765625-15.140625v-.046875l.484375-8.636719c-.671875-25.359375-13.679688-48.792969-34.84375-62.777343-3.191407-2.257813-6.511719-4.328126-9.945313-6.199219-15.5625-8.519531-33.011718-13.003907-50.753906-13.035157-39.835938 0-72.546875 22.480469-83.335938 57.289063-.101562.308594-.210937.601563-.328124.894531zm0 0" data-original="#000000" class="active-path" data-old_color="#000000" fill="#FFFFFF"/><path d="m475.433594 411.429688c0-35.347657-28.652344-64-64-64-35.34375 0-64 28.652343-64 64 0 35.34375 28.65625 64 64 64 35.332031-.042969 63.960937-28.671876 64-64zm-91.425782 0c0 5.046874-4.09375 9.140624-9.144531 9.140624s-9.144531-4.09375-9.144531-9.140624c.03125-25.234376 20.480469-45.683594 45.714844-45.714844 5.050781 0 9.144531 4.09375 9.144531 9.140625 0 5.050781-4.09375 9.144531-9.144531 9.144531-15.148438 0-27.425782 12.28125-27.425782 27.429688zm0 0" data-original="#000000" class="active-path" data-old_color="#000000" fill="#FFFFFF"/><path d="m193.039062 261.304688c2.703126 2.5625 5.269532 5.273437 7.679688 8.117187.675781.785156 1.28125 1.601563 1.921875 2.40625 1.894531 2.351563 3.664063 4.761719 5.308594 7.230469.660156.988281 1.320312 1.964844 1.929687 2.960937 1.808594 2.921875 3.453125 5.941407 4.929688 9.042969.183594.394531.421875.769531.601562 1.171875 1.5625 3.472656 2.90625 7.039063 4.023438 10.675781.320312 1.027344.578125 2.078125.859375 3.121094.757812 2.789062 1.367187 5.609375 1.828125 8.457031.183594 1.085938.394531 2.164063.53125 3.261719.546875 3.773438.847656 7.578125.894531 11.394531h65.375c.042969-3.90625.351563-7.804687.914063-11.667969.089843-.648437.21875-1.289062.320312-1.9375.542969-3.457031 1.296875-6.882812 2.246094-10.25.164062-.585937.3125-1.179687.484375-1.765624 2.347656-7.65625 5.679687-14.976563 9.914062-21.777344.472657-.777344.984375-1.535156 1.488281-2.3125 1.792969-2.707032 3.722657-5.335938 5.796876-7.890625.539062-.667969 1.03125-1.351563 1.589843-2.003907 2.445313-2.878906 5.042969-5.625 7.78125-8.226562h-26.878906v3.832031c0 20.195313-16.375 36.570313-36.570313 36.570313-20.199218 0-36.574218-16.375-36.574218-36.570313v-3.839843zm0 0" data-original="#000000" class="active-path" data-old_color="#000000" fill="#FFFFFF"/><path d="m308.222656 352.539062c1.398438-2.4375 2.882813-4.816406 4.449219-7.140624.3125-.464844.660156-.914063.980469-1.378907 1.652344-2.398437 3.410156-4.71875 5.230468-6.988281.519532-.636719 1.023438-1.289062 1.554688-1.917969 2.15625-2.558593 4.394531-5.054687 6.765625-7.433593.328125-.339844.683594-.648438 1.023437-.976563 2.121094-2.085937 4.332032-4.078125 6.601563-6.007813.628906-.53125 1.261719-1.070312 1.898437-1.589843 2.617188-2.121094 5.296876-4.152344 8.09375-6.054688.320313-.21875.65625-.410156.988282-.628906 2.53125-1.683594 5.144531-3.265625 7.816406-4.753906.738281-.414063 1.480469-.824219 2.230469-1.226563 3-1.589844 6.050781-3.101562 9.195312-4.433594.265625-.121093.550781-.210937.816407-.320312 2.925781-1.214844 5.914062-2.296875 8.941406-3.28125.839844-.265625 1.671875-.542969 2.523437-.789062 3.308594-.996094 6.664063-1.902344 10.058594-2.605469.152344 0 .328125-.054688.492187-.082031 3.28125-.667969 6.628907-1.152344 10-1.535157.917969-.101562 1.832032-.191406 2.746094-.273437 3.5625-.320313 7.15625-.550782 10.804688-.550782 3.382812 0 6.730468.183594 10.058594.46875 1.023437.089844 2.039062.226563 3.0625.335938 2.347656.265625 4.679687.585938 7.003906.988281 1.085937.191407 2.175781.382813 3.261718.605469 2.433594.484375 4.839844 1.058594 7.222657 1.699219.816406.21875 1.636719.402343 2.453125.640625 3.136718.902344 6.226562 1.933594 9.269531 3.097656.667969.257812 1.308594.558594 1.976563.824219 2.375.914062 4.734374 1.984375 7.039062 3.097656.988281.46875 1.945312.914063 2.917969 1.464844 2.019531 1.042969 4.019531 2.136719 5.976562 3.300781.914063.527344 1.828125 1.050781 2.742188 1.609375 2.410156 1.496094 4.757812 3.082031 7.050781 4.753906.347656.246094.703125.472657 1.042969.722657 2.605469 1.9375 5.121093 4.003906 7.558593 6.152343.203126.183594.429688.335938.632813.519531l-6.691406-24.191406c-.777344-1.964844-1.828125-3.757812-2.742188-5.632812-.917969-1.875-1.722656-3.882813-2.746093-5.6875-1.023438-1.800782-2.394532-3.425782-3.601563-5.136719s-2.230469-3.429687-3.527344-4.984375c-1.300781-1.550781-2.925781-3.023438-4.398437-4.523438s-2.742188-2.972656-4.207032-4.296874c-1.460937-1.328126-3.429687-2.578126-5.15625-3.859376-1.589843-1.1875-3.082031-2.488281-4.761718-3.554687-1.828125-1.179687-3.914063-2.105469-5.878906-3.148437-1.746094-.914063-3.402344-1.972657-5.222657-2.742188-2.128906-.914062-4.425781-1.609375-6.65625-2.386719-1.828125-.636719-3.582031-1.425781-5.484375-1.953125-2.605468-.734375-5.375-1.152344-8.089844-1.664062-1.664062-.3125-3.246093-.789063-4.9375-1.007813-4.570312-.613281-9.179687-.917969-13.789062-.914062-17.707031.042969-35.121094 4.53125-50.640625 13.054687l-.46875.222656c-1.828125 1.023438-3.566406 2.203126-5.328125 3.316407-1.507812.960937-3.101562 1.828125-4.574219 2.878906-1.679687 1.207031-3.1875 2.535156-4.761719 3.824219-1.335937 1.097656-2.742187 2.121094-4.023437 3.273437-1.453125 1.332031-2.742187 2.742188-4.066406 4.195313-1.179688 1.234375-2.453125 2.40625-3.539063 3.65625-1.234375 1.453125-2.269531 3.019531-3.382812 4.527344-.988282 1.351562-2.085938 2.652343-2.980469 4.039062-1.007813 1.566406-1.828125 3.210938-2.679687 4.820312-.796876 1.453126-1.691407 2.851563-2.386719 4.34375-.769531 1.664063-1.324219 3.398438-1.964844 5.101563-.578125 1.515625-1.261719 2.988281-1.730469 4.570313-.539062 1.828124-.847656 3.65625-1.242187 5.484374-.335938 1.527344-.792969 3.019532-1.023438 4.574219-.292969 1.925781-.320312 3.894531-.449219 5.851563-.097656 1.507812-.335937 2.988281-.335937 4.515625l.109375 2.6875.265625 6.0625c.019531.058593.035156.121093.042969.183593v.117188zm0 0" data-original="#000000" class="active-path" data-old_color="#000000" fill="#FFFFFF"/><path d="m.0078125 411.429688c.1015625 51.285156 38.8515625 94.242187 89.8554685 99.617187 51.003907 5.371094 97.855469-28.574219 108.636719-78.710937 10.785156-50.140626-17.960938-100.347657-66.664062-116.421876-48.703126-16.074218-101.6875 7.152344-122.871094 53.859376-5.957032 13.074218-9.011719 27.285156-8.9570315 41.65625zm100.5703125-82.285157c45.445313 0 82.285156 36.839844 82.285156 82.285157 0 45.445312-36.839843 82.285156-82.285156 82.285156s-82.285156-36.839844-82.285156-82.285156c.050781-45.425782 36.859375-82.238282 82.285156-82.285157zm0 0" data-original="#000000" class="active-path" data-old_color="#000000" fill="#FFFFFF"/><path d="m512.007812 411.429688c.050782-14.363282-3-28.566407-8.953124-41.636719-2.019532-4.433594-4.359376-8.710938-7.003907-12.800781-27.039062-42.109376-80.914062-57.953126-126.445312-37.183594-45.53125 20.765625-68.882813 71.835937-54.808594 119.863281 14.074219 48.023437 61.300781 78.40625 110.839844 71.3125 49.539062-7.09375 86.339843-49.511719 86.371093-99.554687zm-182.859374 0c0-33.28125 20.046874-63.285157 50.796874-76.023438 30.746094-12.734375 66.140626-5.695312 89.675782 17.835938 23.53125 23.535156 30.570312 58.925781 17.835937 89.675781-12.738281 30.746093-42.742187 50.796875-76.023437 50.796875-45.421875-.050782-82.234375-36.863282-82.285156-82.285156zm0 0" data-original="#000000" class="active-path" data-old_color="#000000" fill="#FFFFFF"/></g> </svg>
