<?xml version="1.0"?>
<svg xmlns="http://www.w3.org/2000/svg" height="512px" viewBox="0 0 57 56" width="512px" class=""><g><g id="Page-1" fill="none" fill-rule="evenodd"><g id="029---Brain-Research" fill="rgb(0,0,0)" fill-rule="nonzero"><path id="Shape" d="m21.149 5.155c-.43-.214-1.613-.425-4.258 1.083.9514413.44240674 1.714566 1.2087215 2.153 2.162.1596855.32644226.129706.7138193-.0783047 1.01180517-.2080106.29798587-.5613064.4596702-.922787.42230959s-.6742399-.26788467-.8169083-.60211476c-.3956493-.85891747-1.2543385-1.40964951-2.2-1.411-.2728914-.00258821-.5439754.04451264-.8.139-.9682728.33994917-1.6175558 1.2527906-1.621 2.279.0071667.3220969.0792732.6394334.212.933 2.0676246.1611293 3.871694 1.4645829 4.674 3.377.2057827.5074157-.0347806 1.0859687-.539664 1.2978883-.5048835.2119196-1.0863106-.0216113-1.304336-.5238883-.6554171-1.5621367-2.3215788-2.4452836-3.9822924-2.1108091-1.6607136.3344746-2.85510212 1.7937481-2.8547076 3.4878091.00078158.3236769.04449619.6458199.13.958.08680777.3681969-.02725395.7548662-.3 1.017-1.23797826 1.0787006-1.67576993 2.8128468-1.09814898 4.3499021.57762094 1.5370554 2.04914648 2.5536858 3.69114898 2.5500979.5522847 0 1 .4477153 1 1s-.4477153 1-1 1c-1.2237525.0021062-2.41787902-.3763658-3.417-1.083-.33591487.4661323-.51804222 1.0254485-.521 1.6.00290924 1.4600887 1.12729958 2.6728458 2.583 2.786.337032.0249448.6386629.2184313.8018621.5143685s.1658842.654282.0071379.9526315c-.2345682.4450439-.3561353.9409276-.354 1.444.0022049 1.7540849 1.4239145 3.1753471 3.178 3.177.4035796-.0000337.7676219.2425297.923.615.7260713 1.7260964 2.567473 2.70192 4.403473 2.3335552s3.1584749-1.9789709 3.162527-3.8515552v-21.646c.0000002-.7059819-.5720184-1.278448-1.278-1.279-.5522847 0-1-.4477153-1-1s.4477153-1 1-1c.4392988.0003603.873996.0894766 1.278.262v-4.579c0-.006-.027-1.257-.851-1.666zm-1.73 22.523c-.1560092-.0003095-.3119155.0080367-.467.025-1.0845522.0669292-2.0266147.7695509-2.4 1.79-.370289 1.0912536-.0786774 2.2981906.749 3.1.9642454.9654391 1.5083526 2.2725185 1.514 3.637 0 .5522847-.4477153 1-1 1s-1-.4477153-1-1c-.0067934-.8404046-.3453742-1.6440847-.942-2.236-1.364771-1.3474424-1.8318613-3.3602123-1.2-5.171.6306101-1.7429947 2.2213639-2.9568778 4.069-3.105.2268641-.0241423.454855-.0361594.683-.036.5522847 0 1 .4477153 1 1s-.4477153 1-1 1zm.563-8.579c.3903819.3904999.3903819 1.0235001 0 1.414-1.0140264 1.0182824-2.3657513 1.6301157-3.8 1.72-.3918318 1.2119086-1.2873059 2.1959461-2.457 2.7-.1246388.0529362-.2585865.0804737-.394.081-.475584.0009924-.8860722-.3331014-.981674-.7989784s.1501348-.9346335.587674-1.1210216c.5034017-.2201102.916042-.6062767 1.169-1.094-1.0441747-.3073452-1.9839729-.8953676-2.717-1.7-.3634076-.4096458-.329744-1.0353873.0755152-1.4036803s1.0313594-.3421341 1.4044848.0586803c.7239738.7979293 1.7433278 1.2642918 2.82043 1.290369s2.1178305-.3904096 2.87957-1.152369c.392313-.3877887 1.0245484-.3846567 1.413.007z" data-original="#000000" class="active-path" data-old_color="#000000" fill="#FFFFFF"/><path id="Shape" d="m38.71 28.088c-.003356-.5744871-.1854449-1.1336852-.521-1.6-.9990024.7069893-2.1931387 1.0858139-3.417 1.084-.5522847 0-1-.4477153-1-1s.4477153-1 1-1c1.6408836.0013559 3.1104516-1.0153976 3.6876777-2.5514023.5772262-1.5360048.1409886-3.2689545-1.0946777-4.3485977-.2631861-.2678501-.3756759-.6491906-.3-1.017.0855038-.3121801.1292184-.6343231.13-.958.0002882-1.6949922-1.1954755-3.1547212-2.8573556-3.4881178s-3.3281431.5521693-3.9816444 2.1161178c-.2180254.502277-.7994525.7358079-1.304336.5238883-.5048834-.2119196-.7454467-.7904726-.539664-1.2978883.802306-1.9124171 2.6063754-3.2158707 4.674-3.377.2748086-.601497.2832278-1.2909926.0231883-1.89902043-.2600394-.60802784-.7644254-1.07820853-1.3891883-1.29497957l-.036-.014c-.2560026-.09500233-.5269385-.14343213-.8-.143-.9456615.00135049-1.8043507.55208253-2.2 1.411-.1426684.33423009-.4554277.56475415-.8169083.60211476s-.7147764-.12432372-.922787-.42230959c-.2080107-.29798587-.2379902-.68536291-.0783047-1.01180517.438434-.9532785 1.2015587-1.71959326 2.153-2.162-2.655-1.515-3.836-1.3-4.266-1.079-.817.406-.853 1.648-.853 1.66v8.379c.4042101-.1715205.8389046-.2596158 1.278-.259.5522847 0 1 .4477153 1 1s-.4477153 1-1 1c-.7036455.0005424-1.2746993.569362-1.278 1.273v17.849c.0002859 1.8765052 1.3249146 3.4919997 3.1649888 3.8599659 1.8400741.3679662 3.6841025-.6138805 4.4060112-2.3459659.1553781-.3724703.5194204-.6150337.923-.615 1.7540855-.0016529 3.1757951-1.4229151 3.178-3.177.0021353-.5030724-.1194318-.9989561-.354-1.444-.1587463-.2983495-.1560613-.6566943.0071379-.9526315s.4648301-.4894237.8018621-.5143685c1.4557004-.1131542 2.5800908-1.3259113 2.583-2.786zm-9.032 5.9c-.5972361.5920815-.9365061 1.396051-.944 2.237 0 .5522847-.4477153 1-1 1s-1-.4477153-1-1c.0060236-1.3650923.5508698-2.6725794 1.516-3.638.8281199-.8015565 1.1197981-2.0087694.749-3.1-.3731677-1.0206112-1.3153545-1.7233255-2.4-1.79-.1557602-.0168831-.3123277-.025229-.469-.025-.5522847 0-1-.4477153-1-1s.4477153-1 1-1c.2284791-.000218.4568061.0117992.684.036 1.8476361.1481222 3.4383899 1.3620053 4.069 3.105.6332365 1.8131764.1639551 3.8289443-1.205 5.176zm3.908-9.58c-.1571133.3687213-.5192008.6080139-.92.608-.1354135-.0005263-.2693612-.0280638-.394-.081-1.1696941-.5040539-2.0651682-1.4880914-2.457-2.7-1.4342487-.0898843-2.7859736-.7017176-3.8-1.72-.3907414-.3912937-.3902937-1.0252585.001-1.416.3912938-.3907414 1.0252585-.3902937 1.416.001.7617395.7619594 1.8024678 1.1784462 2.87957 1.152369s2.0964562-.4924397 2.82043-1.290369c.3731254-.4008144.9992256-.4269733 1.4044848-.0586803s.4389228.9940345.0755152 1.4036803c-.7341698.8022238-1.6742507 1.3877856-2.718 1.693.2511111.4894634.6627509.8778029 1.166 1.1.5056729.2172446.7407533.8022641.526 1.309z" data-original="#000000" class="active-path" data-old_color="#000000" fill="#FFFFFF"/><path id="Shape" d="m45.433 39.723c.3850802-.3895663.3850802-1.0164337 0-1.406l-1.565-1.572c-1.8586466 2.8104414-4.2620318 5.2196072-7.068 7.085l1.563 1.563c.1884718.1889616.4446583.2947445.7115426.2938054s.5223201-.1085221.7094574-.2988054l5.568-5.578c.0248051-.0309686.0518799-.0600488.081-.087z" data-original="#000000" class="active-path" data-old_color="#000000" fill="#FFFFFF"/><path id="Shape" d="m55.173 50.877-9.032-9.022-4.241 4.245 9.023 9.023c1.1896195 1.1304163 3.0563805 1.1304163 4.246 0 1.1705028-1.1733273 1.1705028-3.0726727 0-4.246z" data-original="#000000" class="active-path" data-old_color="#000000" fill="#FFFFFF"/><path id="Shape" d="m46 23c0-12.7025492-10.2974508-23-23-23s-23 10.2974508-23 23 10.2974508 23 23 23c12.6966095-.0143284 22.9856716-10.3033905 23-23zm-12.859 15.922c-.9986967 1.8191435-2.8751722 2.9843871-4.9485369 3.0729155-2.0733647.0885285-4.0423365-.9125223-5.1924631-2.6399155-1.1501266 1.7273932-3.1190984 2.728444-5.1924631 2.6399155-2.0733647-.0885284-3.9498402-1.253772-4.9485369-3.0729155-1.457024-.182732-2.7678153-.9758554-3.60575647-2.1817429-.83794112-1.2058875-1.12412573-2.7109844-.78724353-4.1402571-1.90032892-.6888677-3.1686259-2.49068-3.176-4.512-.00226389-1.1086543.38293607-2.1832525 1.089-3.038-1.62542651-2.2942683-1.41182305-5.4155541.511-7.467-.47599915-2.7533058 1.19150671-5.4250169 3.874-6.207-.592418-2.1475032.528553-4.3963436 2.6-5.216 3.916-2.852 6.764-3.765 8.7-2.785.3551369.18014872.6727786.42618527.936.725.2636304-.29973506.5819781-.54647151.938-.727 1.934-.98 4.78-.066 8.69 2.781 2.0761894.81717265 3.2012944 3.06910825 2.608 5.22 2.6824933.7819831 4.3499991 3.4536942 3.874 6.207 1.9223796 2.0515281 2.1363642 5.1722774.512 7.467.7052592.8551378 1.0900412 1.9295565 1.088 3.038-.0065363 2.0220538-1.274985 3.8248803-3.176 4.514.3368822 1.4292727.0506976 2.9343696-.7872435 4.1402571-.8379412 1.2058875-2.1487325 1.9990109-3.6057565 2.1817429z" data-original="#000000" class="active-path" data-old_color="#000000" fill="#FFFFFF"/></g></g></g> </svg>
