<?xml version="1.0"?>
<svg xmlns="http://www.w3.org/2000/svg" id="Solid" height="512px" viewBox="0 0 512 512" width="512px"><g><g><path d="m221.344 271.281 28 18.667a11.97 11.97 0 0 0 13.312 0l28-18.667a11.977 11.977 0 0 0 5.344-9.981v-61.3h-18.672a38.063 38.063 0 0 1 -35.328 24h-26v37.3a11.977 11.977 0 0 0 5.344 9.981z" data-original="#000000" class="active-path" data-old_color="#000000" fill="#FFFFFF"/><path d="m264 186v-26h-42a22.025 22.025 0 0 0 -22 22v26h42a22.025 22.025 0 0 0 22-22z" data-original="#000000" class="active-path" data-old_color="#000000" fill="#FFFFFF"/><path d="m285.953 317.793-9.056-18.11-5.366 3.577a27.922 27.922 0 0 1 -31.062 0l-5.366-3.577-9.056 18.11 29.953 23.962z" data-original="#000000" class="active-path" data-old_color="#000000" fill="#FFFFFF"/><path d="m304 176.4a12.034 12.034 0 0 0 -9.647-11.767l-14.353-2.874v22.241h24z" data-original="#000000" class="active-path" data-old_color="#000000" fill="#FFFFFF"/><path d="m400 75.544v24.912l33.216-12.456z" data-original="#000000" class="active-path" data-old_color="#000000" fill="#FFFFFF"/><path d="m408 176a72 72 0 1 0 -72-72 72.081 72.081 0 0 0 72 72zm-24-112a8 8 0 0 1 10.809-7.491l64 24a8 8 0 0 1 0 14.982l-58.809 22.053v34.456h-16z" data-original="#000000" class="active-path" data-old_color="#000000" fill="#FFFFFF"/><path d="m292.039 333.414-18.939 15.151 26.514 7.576z" data-original="#000000" class="active-path" data-old_color="#000000" fill="#FFFFFF"/><path d="m201.906 336.981-29.127 16.182a87.58 87.58 0 0 1 19.221 54.837h128a87.58 87.58 0 0 1 19.221-54.837l-29.127-16.182 9.5 28.489a8 8 0 0 1 -9.788 10.222l-53.806-15.372-53.8 15.372a8 8 0 0 1 -9.788-10.222z" data-original="#000000" class="active-path" data-old_color="#000000" fill="#FFFFFF"/><path d="m104 192a87.5 87.5 0 0 1 -34.944-7.237 200.872 200.872 0 0 0 0 142.474 87.889 87.889 0 0 1 92.226 14.011l18.833-10.463 29.836-16.576 11.736-23.47-9.218-6.145a27.943 27.943 0 0 1 -12.469-23.294v-37.3h-8a8 8 0 0 1 -8-8v-34a38.043 38.043 0 0 1 38-38h50 .132.085.1.122.069l.159.011h.039l.2.02a7.711 7.711 0 0 1 .779.127l23.8 4.761a28.075 28.075 0 0 1 22.515 27.481v15.6a8 8 0 0 1 -8 8v61.3a27.943 27.943 0 0 1 -12.469 23.3l-9.218 6.145 11.736 23.47 29.836 16.576 18.833 10.463a87.889 87.889 0 0 1 92.226-14.011 200.872 200.872 0 0 0 0-142.474 88 88 0 0 1 -115.707-115.713 200.872 200.872 0 0 0 -142.474 0 88 88 0 0 1 -80.763 122.944z" data-original="#000000" class="active-path" data-old_color="#000000" fill="#FFFFFF"/><path d="m381.766 440h52.468l10.666-32h-73.8z" data-original="#000000" class="active-path" data-old_color="#000000" fill="#FFFFFF"/><path d="m190.542 424a87.24 87.24 0 0 1 -5.779 18.944 200.872 200.872 0 0 0 142.474 0 87.24 87.24 0 0 1 -5.779-18.944z" data-original="#000000" class="active-path" data-old_color="#000000" fill="#FFFFFF"/><path d="m104 336a72 72 0 1 0 72 72 72.081 72.081 0 0 0 -72-72zm55.42 55.555a8 8 0 0 1 -2.161 8.258l-20.77 19.43 4.888 27.35a8 8 0 0 1 -11.479 8.55l-25.993-13.116-25.993 13.116a8 8 0 0 1 -11.478-8.55l4.887-27.35-20.769-19.43a8 8 0 0 1 4.359-13.765l28.98-4.042 12.9-25.086a8 8 0 0 1 14.229 0l12.9 25.085 28.979 4.042a8 8 0 0 1 6.521 5.508z" data-original="#000000" class="active-path" data-old_color="#000000" fill="#FFFFFF"/><path d="m408 336a72 72 0 1 0 72 72 72.081 72.081 0 0 0 -72-72zm54.49 59.322a8.007 8.007 0 0 1 1.1 7.208l-16 48a8 8 0 0 1 -7.59 5.47h-64a8 8 0 0 1 -7.59-5.47l-16-48a8 8 0 0 1 7.59-10.53h10.584l13.988-34.971 14.856 5.942-11.612 29.029h40.368l-11.612-29.029 14.856-5.942 13.988 34.971h10.584a8 8 0 0 1 6.49 3.322z" data-original="#000000" class="active-path" data-old_color="#000000" fill="#FFFFFF"/><path d="m104 176a72 72 0 1 0 -72-72 72.081 72.081 0 0 0 72 72zm-32-48h40a8 8 0 0 0 0-16h-16a24 24 0 0 1 0-48v-8h16v8h24v16h-40a8 8 0 0 0 0 16h16a24 24 0 0 1 0 48v8h-16v-8h-24z" data-original="#000000" class="active-path" data-old_color="#000000" fill="#FFFFFF"/><path d="m111.589 393.015-7.684-14.942-7.684 14.942a8 8 0 0 1 -6.009 4.265l-16.49 2.3 11.7 10.949a8 8 0 0 1 2.41 7.249l-2.832 15.867 15.3-7.721a8 8 0 0 1 7.207 0l15.3 7.721-2.835-15.867a8 8 0 0 1 2.409-7.249l11.7-10.949-16.49-2.3a8 8 0 0 1 -6.002-4.265z" data-original="#000000" class="active-path" data-old_color="#000000" fill="#FFFFFF"/><path d="m212.386 356.141 26.514-7.576-18.939-15.151z" data-original="#000000" class="active-path" data-old_color="#000000" fill="#FFFFFF"/></g></g> </svg>
