<?xml version="1.0"?>
<svg xmlns="http://www.w3.org/2000/svg" id="Layer_35" enable-background="new 0 0 64 64" height="512px" viewBox="0 0 64 64" width="512px"><g><path d="m43 45c-2.351 0-4.525-.744-6.313-2h-7.527l-.836-3.65c-.307-1.384-1.512-2.35-2.928-2.35h-3.432c.023.163.036.33.036.5 0 .539-.133 1.044-.351 1.5h3.747c.472 0 .874.322.978.79l3.022 13.197.002-.001c.258 1.281 1.005 2.355 2.014 3.073-1.375.274-2.412 1.485-2.412 2.941 0 1.657 1.343 3 3 3s3-1.343 3-3c0-.775-.302-1.475-.785-2.007.028 0 .054.007.082.007h17.481c-.478.532-.778 1.228-.778 2 0 1.657 1.343 3 3 3s3-1.343 3-3c0-1.427-.998-2.615-2.332-2.919.988-.695 1.725-1.735 2.005-2.996l1.304-5.868.023-4.217h-8.687c-1.788 1.256-3.962 2-6.313 2zm-5 8h-2v-6h2zm6 0h-2v-6h2zm6 0h-2v-6h2z" data-original="#000000" class="active-path" data-old_color="#000000" fill="#FFFFFF"/><path d="m18 34v-.824c0-1.703.854-3.272 2.284-4.198l14.105-9.126c.382-.248.611-.668.611-1.124v-.39c0-.737-.601-1.338-1.338-1.338-.248 0-.49.068-.701.198l-10.508 6.467c-1.421.873-3.052 1.335-4.717 1.335h-7.736c-3.86 0-7 3.141-7 7v4c0 1.654 1.346 3 3 3h12.5c.827 0 1.5-.673 1.5-1.5s-.673-1.5-1.5-1.5h-12.5v-2z" data-original="#000000" class="active-path" data-old_color="#000000" fill="#FFFFFF"/><circle cx="13" cy="18" r="5" data-original="#000000" class="active-path" data-old_color="#000000" fill="#FFFFFF"/><path d="m8 59c0 1.103.897 2 2 2s2-.897 2-2v-16h2v16c0 1.103.897 2 2 2s2-.897 2-2v-18h-10z" data-original="#000000" class="active-path" data-old_color="#000000" fill="#FFFFFF"/><path d="m52 34c0-4.963-4.038-9-9-9s-9 4.037-9 9 4.038 9 9 9 9-4.037 9-9zm-12 2h2c0 .552.449 1 1 1h1v-1c0-.552-.449-1-1-1-1.654 0-3-1.346-3-3v-3h2v-2h2v2.184c1.161.414 2 1.514 2 2.816h-2c0-.552-.449-1-1-1h-1v1c0 .552.449 1 1 1 1.654 0 3 1.346 3 3v3h-2v2h-2v-2.184c-1.161-.414-2-1.514-2-2.816z" data-original="#000000" class="active-path" data-old_color="#000000" fill="#FFFFFF"/><path d="m56.386 15.02c-.746 1.815-2.133 3.343-3.958 4.21l-.857-1.807c2.083-.989 3.429-3.117 3.429-5.423 0-3.309-2.691-6-6-6-.955 0-1.873.223-2.729.661l-.728.373-.51-.639c-1.721-2.158-4.284-3.395-7.033-3.395-4.962 0-9 4.037-9 9 0 .659.081 1.343.24 2.032l.21.912-.896.27c-2.007.606-3.418 2.444-3.532 4.522l6.891-4.241c.525-.324 1.13-.495 1.749-.495 1.84 0 3.338 1.497 3.338 3.338v.39c0 1.137-.57 2.185-1.524 2.803l-5.362 3.469h6.582c1.787-1.256 3.959-2 6.305-2s4.517.744 6.305 2h6.694c2.757 0 5-2.243 5-5 0-2.623-2.075-4.778-4.614-4.98zm-18.386-8.02c-2.757 0-5 2.243-5 5h-2c0-3.859 3.14-7 7-7zm3 10h-2v-2h2zm4 0h-2v-2h2zm4 0h-2v-2h2zm0-7v-2c2.206 0 4 1.794 4 4h-2c0-1.103-.897-2-2-2z" data-original="#000000" class="active-path" data-old_color="#000000" fill="#FFFFFF"/></g> </svg>
