<?xml version="1.0"?>
<svg xmlns="http://www.w3.org/2000/svg" id="Capa_1" enable-background="new 0 0 512 512" height="512px" viewBox="0 0 512 512" width="512px" class=""><g><path d="m56.511 209.099c2.823-16.487 17.208-29.079 34.489-29.079h330c17.28 0 31.667 12.592 34.489 29.079l33.029-25.804-207.149-174.003c-7.374-6.195-16.372-9.292-25.369-9.292s-17.995 3.097-25.369 9.292l-207.149 174.003z" data-original="#000000" class="active-path" data-old_color="#000000" fill="#FC5500"/><path d="m426 232.138v-17.118c0-2.757-2.243-5-5-5h-330c-2.757 0-5 2.243-5 5v17.118l163.844 128.003c2.242 1.752 4.586 2.12 6.156 2.12s3.914-.368 6.156-2.12z" data-original="#000000" class="active-path" data-old_color="#000000" fill="#FC5500"/><path d="m472 512c4.104 0 8.063-.62 11.79-1.768l-188.33-135.021c-.67-.481-1.274-1.017-1.841-1.581l-12.994 10.151c-7.235 5.653-15.931 8.479-24.626 8.479s-17.39-2.826-24.626-8.479l-12.994-10.151c-.566.564-1.17 1.1-1.841 1.581l-188.328 135.02c3.727 1.149 7.686 1.769 11.79 1.769z" data-original="#000000" class="active-path" data-old_color="#000000" fill="#FC5500"/><path d="m512 203.02-193.916 151.497 189.457 135.83c2.843-5.497 4.459-11.732 4.459-18.347z" data-original="#000000" class="active-path" data-old_color="#000000" fill="#FC5500"/><path d="m193.916 354.517-193.916-151.497v268.98c0 6.615 1.616 12.85 4.459 18.347z" data-original="#000000" class="active-path" data-old_color="#000000" fill="#FC5500"/></g> </svg>
