<?xml version="1.0"?>
<svg xmlns="http://www.w3.org/2000/svg" height="512px" viewBox="0 0 58 51" width="512px" class=""><g><g id="Page-1" fill="none" fill-rule="evenodd"><g id="003---Gems" fill="rgb(0,0,0)" fill-rule="nonzero"><path id="Shape" d="m16.31 6.99999999-5.19 9.52000001c-.0782549.1479313-.1194338.3126465-.12.48h-10.27l6.97-9.588c.18819554-.2588844.48893955-.41204451.809-.412z" data-original="#000000" class="active-path" data-old_color="#000000" fill="#FFFFFF"/><path id="Shape" d="m27.4 7 5.46 10h-19.72l5.46-10z" data-original="#000000" class="active-path" data-old_color="#000000" fill="#FFFFFF"/><path id="Shape" d="m45.27 17h-10.27c-.0005662-.1673535-.0417451-.3320687-.12-.48l-5.19-9.52000001 7.8.00000001c.3200605-.00004451.6208045.1531156.809.412z" data-original="#000000" class="active-path" data-old_color="#000000" fill="#FFFFFF"/><path id="Shape" d="m15.73 29.39 5.19 12.26-20.04-22.65h10.46l2.28 5.39c.1564992.3695049.5187198.609673.92.61.1338165-.0024296.2660336-.0295511.39-.08.2454873-.1016528.4398722-.2976267.539523-.5439334.0996508-.2463068.0962198-.5223131-.009523-.7660666l-1.95-4.61h18.98l-9.49 22.43-5.43-12.82c-.2286704-.4861182-.800567-.7047041-1.2951769-.4950326-.4946098.2096716-.7351812.7726733-.5448231 1.2750326z" data-original="#000000" class="active-path" data-old_color="#000000" fill="#FFFFFF"/><path id="Shape" d="m45.12 19-20.04 22.65 9.58-22.65z" data-original="#000000" class="active-path" data-old_color="#000000" fill="#FFFFFF"/><path id="Shape" d="m47.43 31h-10.26l6.19-7z" data-original="#000000" class="active-path" data-old_color="#000000" fill="#FFFFFF"/><path id="Shape" d="m57.26 31h-7.54l-3.88-7h5.745c.3158168.0014125.6124061.1519316.8.406z" data-original="#000000" class="active-path" data-old_color="#000000" fill="#FFFFFF"/><path id="Shape" d="m33.2 35.49 5.72 14.06-8.9-10.47z" data-original="#000000" class="active-path" data-old_color="#000000" fill="#FFFFFF"/><path id="Shape" d="m47.64 33-6.64 16.35-6.32-15.54.72-.81z" data-original="#000000" class="active-path" data-old_color="#000000" fill="#FFFFFF"/><path id="Shape" d="m57.15 33-14.07 16.56 6.72-16.56z" data-original="#000000" class="active-path" data-old_color="#000000" fill="#FFFFFF"/><path id="Shape" d="m38 4c-.5522847 0-1-.44771525-1-1v-2c0-.55228475.4477153-1 1-1s1 .44771525 1 1v2c0 .55228475-.4477153 1-1 1z" data-original="#000000" class="active-path" data-old_color="#000000" fill="#FFFFFF"/><path id="Shape" d="m42 6c-.4408769.00054029-.8300902-.28770993-.9581268-.70958597-.1280366-.42187603.0353166-.87782656.4021268-1.12241403l1.845-1.23c.2967641-.21121805.6849045-.24436455 1.0131856-.08652425.328281.1578403.5447708.48169801.5651158.84538483.0203451.36368682-.158673.70966968-.4673014.90313942l-1.844 1.23c-.1644062.1104823-.3579202.16965025-.556.17z" data-original="#000000" class="active-path" data-old_color="#000000" fill="#FFFFFF"/><path id="Shape" d="m22.845 51c-.5522847 0-1-.4477153-1-1v-2c0-.5522847.4477153-1 1-1s1 .4477153 1 1v2c0 .5522847-.4477153 1-1 1z" data-original="#000000" class="active-path" data-old_color="#000000" fill="#FFFFFF"/><path id="Shape" d="m17 48.23c-.4408769.0005403-.8300902-.2877099-.9581268-.709586-.1280366-.421876.0353166-.8778265.4021268-1.122414l1.845-1.23c.297245-.1984611.6777884-.2232683.9982832-.0650772.3204948.1581912.5322502.4753478.5555.8320001.0232498.3566522-.1455382.6986161-.4427832.8970771l-1.844 1.23c-.1646302.1097754-.3581271.168242-.556.168z" data-original="#000000" class="active-path" data-old_color="#000000" fill="#FFFFFF"/></g></g></g> </svg>
