<?xml version="1.0"?>
<svg xmlns="http://www.w3.org/2000/svg" id="Layer_5" enable-background="new 0 0 64 64" height="512px" viewBox="0 0 64 64" width="512px" class=""><g><path d="m19.293 24.879c.238.238.707.045.707-.293v-5.586h4c1.654 0 3-1.346 3-3v-10c0-1.654-1.346-3-3-3h-18c-1.654 0-3 1.346-3 3v10c0 1.654 1.346 3 3 3h7.414zm-12-10.172 1.414-1.414 2.293 2.293 11.293-11.293 1.414 1.414-12.707 12.707z" data-original="#000000" class="active-path" data-old_color="#000000" fill="#FFFFFF"/><path d="m37 35v-4h-10v4h2v-2h2v2h2v-2h2v2z" data-original="#000000" class="active-path" data-old_color="#000000" fill="#FFFFFF"/><path d="m56.454 37.15c-.279.666-.574 1.326-.897 1.972l-.557 1.114v2.764h.398c1.899 0 3.753.414 5.453 1.208-.473-2.828-2.055-5.375-4.397-7.058z" data-original="#000000" class="active-path" data-old_color="#000000" fill="#FFFFFF"/><path d="m35 59h-2v-2h-2v2h-2v-2h-2v4h10v-4h-2z" data-original="#000000" class="active-path" data-old_color="#000000" fill="#FFFFFF"/><path d="m50.878 6.17-1.478-1.97c-.563-.751-1.461-1.2-2.4-1.2s-1.836.449-2.4 1.2l-1.478 1.97c-.678.905-1.284 1.858-1.855 2.83h11.466c-.571-.972-1.177-1.925-1.855-2.83z" data-original="#000000" class="active-path" data-old_color="#000000" fill="#FFFFFF"/><path d="m52 31h-13v6h-14v-6h-13c-.551 0-1 .449-1 1v28c0 .552.449 1 1 1h13v-6h14v6h13c.551 0 1-.448 1-1v-28c0-.551-.449-1-1-1zm-37 28h-2v-2h2zm4 0h-2v-2h2zm4 0h-2v-2h2zm0-4h-10v-2h10zm28 4h-2v-2h2zm0-4h-2v-2h2zm0-4h-2v-2h2z" data-original="#000000" class="active-path" data-old_color="#000000" fill="#FFFFFF"/><circle cx="47" cy="20" r="5" data-original="#000000" class="active-path" data-old_color="#000000" fill="#FFFFFF"/><path d="m55 35.388c1.308-3.459 2-7.155 2-10.85 0-4.69-1.123-9.341-3.186-13.538h-13.628c-2.063 4.196-3.186 8.848-3.186 13.538 0 1.489.116 2.986.334 4.462h14.666c1.654 0 3 1.346 3 3zm-8-8.388c-3.86 0-7-3.14-7-7s3.14-7 7-7 7 3.14 7 7-3.14 7-7 7z" data-original="#000000" class="active-path" data-old_color="#000000" fill="#FFFFFF"/></g> </svg>
