<?xml version="1.0"?>
<svg xmlns="http://www.w3.org/2000/svg" height="512px" viewBox="0 0 384 384" width="512px" class=""><g><path d="m32 384h96v-48h32c26.472656 0 48-21.527344 48-48v-12.863281l80 11.847656v33.015625h96v-320h-96v33.007812l-209.191406 30.992188h-78.808594v192h32zm288-352h32v256h-32zm-144 256c0 8.824219-7.175781 16-16 16h-32v-40.710938l48 7.109376zm-80-194.191406 192-28.441406v189.28125l-192-28.441407zm0 164.734375v93.457031h-32v-96h14.808594zm-64-162.542969h32v128h-32zm0 0" data-original="#000000" class="active-path" data-old_color="#000000" fill="#FF5C00"/></g> </svg>
