<?xml version="1.0"?>
<svg xmlns="http://www.w3.org/2000/svg" height="512px" viewBox="0 0 384 384" width="512px"><g><path d="m352 208v-32h-49.28125c-7.046875-48.945312-45.773438-87.671875-94.71875-94.71875v-49.28125h-32v49.28125c-48.945312 7.046875-87.671875 45.773438-94.71875 94.71875h-49.28125v32h49.28125c7.046875 48.945312 45.773438 87.671875 94.71875 94.71875v49.28125h32v-49.28125c48.945312-7.046875 87.671875-45.773438 94.71875-94.71875zm-81.617188 0c-6.375 31.296875-31.085937 56.007812-62.382812 62.382812v-46.382812h-32v46.382812c-31.296875-6.375-56.007812-31.085937-62.382812-62.382812h46.382812v-32h-46.382812c6.375-31.296875 31.085937-56.007812 62.382812-62.382812v46.382812h32v-46.382812c31.296875 6.375 56.007812 31.085937 62.382812 62.382812h-46.382812v32zm0 0" data-original="#000000" class="active-path" data-old_color="#000000" fill="#FF5C00"/><path d="m32 32h64v-32h-96v96h32zm0 0" data-original="#000000" class="active-path" data-old_color="#000000" fill="#FF5C00"/><path d="m32 288h-32v96h96v-32h-64zm0 0" data-original="#000000" class="active-path" data-old_color="#000000" fill="#FF5C00"/><path d="m352 352h-64v32h96v-96h-32zm0 0" data-original="#000000" class="active-path" data-old_color="#000000" fill="#FF5C00"/><path d="m288 32h64v64h32v-96h-96zm0 0" data-original="#000000" class="active-path" data-old_color="#000000" fill="#FF5C00"/></g> </svg>
