<?xml version="1.0"?>
<svg xmlns="http://www.w3.org/2000/svg" height="512px" viewBox="0 0 382.632 382.632" width="512px" class=""><g><path d="m136 272c31.734375 0 60.902344-11.015625 84.0625-29.304688l21.304688 21.304688-24 24 94.632812 94.632812 70.632812-70.632812-94.632812-94.632812-24 24-21.304688-21.304688c18.289063-23.160156 29.304688-52.328125 29.304688-84.0625 0-74.992188-61.007812-136-136-136s-136 61.007812-136 136 61.007812 136 136 136zm128 14.632812 24-24 49.367188 49.367188-25.367188 25.367188-49.367188-49.367188zm-128-46.839843c-6.054688-3.585938-18.359375-27.792969-22.550781-72.21875 4.726562.25 9.550781.425781 14.550781.425781 10.519531 0 20.769531-.65625 30.65625-1.679688-4.082031 45.207032-16.550781 69.855469-22.65625 73.472657zm101.824219-124.960938c-7.144531 2.753907-23.894531 8.726563-45.953125 13.65625-.648438-31.640625-5.375-63.671875-14.566406-87.886719 30.582031 13.292969 53.582031 40.839844 60.519531 74.230469zm-46.710938 46.535157c20.117188-4.046876 36.878907-9.121094 48.078125-12.984376-4.457031 37.296876-28.664062 68.570313-61.886718 83.015626 7.464843-19.65625 12.023437-44.445313 13.808593-70.03125zm-55.113281-129.160157c7.28125 4.3125 23.625 38.464844 23.96875 101.792969-10.242188 1.230469-20.984375 2-31.96875 2-5.542969 0-10.839844-.246094-15.992188-.601562.105469-64.246094 16.65625-98.847657 23.992188-103.191407zm-41.304688 8.394531c-9.4375 24.855469-14.167968 57.957032-14.605468 90.40625-24.457032-5.199218-40.707032-12.960937-46-15.726562 6.8125-33.59375 29.886718-61.328125 60.605468-74.679688zm-13.597656 123.230469c1.894532 24.710938 6.367188 48.542969 13.589844 67.566407-32.726562-14.230469-56.679688-44.8125-61.640625-81.382813 11.199219 4.609375 27.488281 10.113281 48.050781 13.816406zm0 0" data-original="#000000" class="active-path" data-old_color="#000000" fill="#FF5C00"/></g> </svg>
