<?xml version="1.0"?>
<svg xmlns="http://www.w3.org/2000/svg" xmlns:xlink="http://www.w3.org/1999/xlink" version="1.1" id="Capa_1" x="0px" y="0px" width="512px" height="512px" viewBox="0 0 451.8 451.8" style="enable-background:new 0 0 451.8 451.8;" xml:space="preserve"><g><g>
	<g>
		<path d="M405.702,151.8h-47.7v-12.2c9.8-3.7,18.398-11,24.5-19.6c8.6-12.2,12.2-29.4,9.8-44.1c-2.4-13.5-9.8-24.5-20.8-31.8    c-11-7.3-24.5-11-37.9-8.6c-9.8,1.2-17.1,11-14.7,20.8c1.2,9.8,11,17.1,20.802,14.7c3.698-1.2,7.3,0,9.8,2.4s4.898,4.9,6.1,8.6    c1.2,6.1,0,12.2-3.7,17.1c-3.698,4.9-7.3,7.3-13.5,8.6c-13.5,2.4-22-4.9-42.8-31.8c-3.7-4.9-7.3-11-12.2-15.9    c-18.398-26.9-42.8-60-88.1-60l0,0c-20.8,0-39.2,8.6-52.6,23.3c-9.8,11-15.9,25.7-18.4,41.6h-77.1c-9.8,0-18.4,8.6-18.4,18.4    V433.4c0,9.799,8.6,18.399,18.4,18.399c9.8,0,18.4-8.602,18.4-18.399V101.7h62.199c3.7,11,11,22,20.8,29.4    c2.4,2.4,6.1,4.9,9.8,6.1l0,0v15.9h-47.7c-9.8,0-18.4,8.6-18.4,18.4v134.6c0,6.101,3.7,12.201,8.6,15.9l146.9,91.801    c2.4,2.398,6.1,2.398,9.8,2.398s7.3-1.199,9.8-2.398L414.301,322c4.9-3.699,8.6-9.801,8.6-15.9V171.4    C424.001,160.4,415.501,151.8,405.702,151.8z M170.701,46.6c6.1-7.3,14.7-11,24.5-11c-9.8,1.2-15.9,11-14.7,19.6    c1.2,9.8,9.8,17.1,20.8,15.9c3.7,0,7.3,1.2,9.8,2.4c2.4,2.4,4.9,6.1,4.9,8.6c1.2,6.1-1.2,11-4.9,15.9c-3.7,4.9-8.6,7.3-14.7,7.3    c-8.6,1.2-17.1-1.2-23.3-7.3c-6.1-4.9-11-12.2-11-20.8C159.601,67.4,163.301,55.2,170.701,46.6z M196.401,144.5c1.2,0,2.4,0,3.7,0    c15.9-1.2,29.4-9.8,39.2-22s14.7-26.9,12.2-42.8c0-2.4,0-3.7-1.2-6.1c1.2,1.2,2.4,3.7,3.7,6.1c4.898,6.1,8.6,12.2,13.5,17.1    c14.7,19.6,30.6,39.2,53.898,44.1v9.8h-125L196.401,144.5L196.401,144.5z" data-original="#000000" class="active-path" data-old_color="#000000" fill="#FFFFFF"/>
	</g>
</g></g> </svg>
