<svg xmlns="http://www.w3.org/2000/svg" xmlns:xlink="http://www.w3.org/1999/xlink" xmlns:fi="http://pattern.flaticon.com/" x="0" y="0" width="700" height="350" viewBox="0 0 700 350"><rect x="0px" y="0px" width="100%" height="100%" opacity="1" fill="#ffffff"/><defs><g transform="matrix(-0.1207381933927536 0 0 0.1207381933927536 65.88614392280579 270)"><path d="M383.758,190.054c0-18.748-5.932-34.184-17.153-44.638c-10.296-9.592-24.488-14.661-41.042-14.661   c-18.589,0-34.25,6.457-44.53,18.251c-8.798-4.204-19.025-6.386-30.274-6.386c-11.254,0-21.486,2.185-30.288,6.393   c-10.3-11.798-25.954-18.258-44.516-18.258c-16.554,0-30.746,5.069-41.042,14.661c-11.221,10.454-17.153,25.89-17.153,44.638   c0,30.428,14.495,61.368,34.075,75.849c-28.011,5.899-53.148,22.017-70.284,45.418c-0.946,1.292-1.086,3.005-0.362,4.434   c0.724,1.428,2.189,2.327,3.791,2.327h81.665c-6.455,5.791-12.35,12.277-17.558,19.389c-0.946,1.292-1.086,3.005-0.362,4.434   c0.724,1.428,2.189,2.327,3.79,2.327h196.485c1.601,0,3.066-0.899,3.79-2.328c0.725-1.428,0.585-3.142-0.361-4.433   c-5.208-7.111-11.103-13.598-17.558-19.389h81.666c1.601,0,3.066-0.899,3.79-2.328c0.725-1.428,0.585-3.142-0.361-4.433   c-17.137-23.402-42.273-39.518-70.285-45.417C369.263,251.422,383.758,220.482,383.758,190.054z M93.785,309.581   c18.119-21.015,43.699-34.417,71.397-37.148c1.974-0.194,3.55-1.729,3.799-3.696c0.249-1.968-0.896-3.846-2.759-4.525   c-19.73-7.202-36.665-36.016-39.53-65.496h28.313c2.347,0,4.25-1.902,4.25-4.25c0-2.348-1.903-4.25-4.25-4.25h-28.743   c0-0.054-0.003-0.107-0.003-0.161c0-31.809,18.577-50.799,49.694-50.799c15.354,0,28.286,4.982,36.971,14.108   c-2.208,1.515-4.301,3.176-6.256,4.997c-12.047,11.223-18.415,27.805-18.415,47.954c0,17.059,4.236,34.261,11.263,49.034   c-4.434,4.144-9.075,7.126-13.831,8.863c-1.863,0.681-3.007,2.559-2.758,4.526c0.249,1.967,1.826,3.501,3.799,3.695   c9.827,0.969,19.465,3.293,28.671,6.89c3.195,3.468,6.585,6.528,10.129,9.077c-17.48,3.571-33.936,10.839-48.306,21.181H93.785z    M203.596,263.109c0.844,1.458,1.714,2.886,2.613,4.276c-2.019-0.541-4.047-1.046-6.092-1.477   C201.291,265.043,202.45,264.103,203.596,263.109z M340.231,335.73H161.287c19.65-23.083,47.562-37.811,77.805-40.794   c1.974-0.194,3.55-1.729,3.799-3.696c0.249-1.968-0.896-3.846-2.759-4.525c-23.513-8.583-43.378-45.401-43.378-80.4   c0-4.619,0.372-8.982,1.078-13.087h71.318c2.348,0,4.25-1.902,4.25-4.25c0-2.348-1.902-4.25-4.25-4.25h-69.246   c6.894-21.379,24.832-33.608,50.853-33.608c33.816,0,54.005,20.634,54.005,55.194c0,34.999-19.865,71.817-43.378,80.4   c-1.863,0.68-3.008,2.558-2.76,4.525c0.249,1.968,1.826,3.502,3.8,3.696C292.668,297.919,320.579,312.648,340.231,335.73z    M301.399,265.909c-2.045,0.431-4.072,0.935-6.091,1.477c0.899-1.391,1.769-2.818,2.613-4.276   C299.067,264.103,300.226,265.042,301.399,265.909z M407.733,309.581h-83.438c-14.37-10.342-30.826-17.609-48.306-21.181   c3.544-2.549,6.934-5.609,10.129-9.076c9.204-3.598,18.843-5.922,28.671-6.891c1.974-0.194,3.55-1.728,3.8-3.695   c0.249-1.968-0.896-3.846-2.759-4.526c-4.758-1.737-9.398-4.719-13.831-8.863c7.026-14.775,11.263-31.975,11.263-49.034   c0-20.149-6.368-36.732-18.415-47.954c-1.959-1.825-4.056-3.489-6.27-5.006c8.669-9.12,21.607-14.1,36.984-14.1   c22.287,0,38.138,9.745,45.342,26.961h-26.946c-2.348,0-4.25,1.902-4.25,4.25c0,2.348,1.902,4.25,4.25,4.25h29.646   c1.084,4.71,1.654,9.826,1.654,15.338c0,32.29-18.302,66.25-39.964,74.158c-1.863,0.68-3.009,2.559-2.76,4.525   c0.249,1.968,1.826,3.502,3.8,3.696C364.032,275.164,389.613,288.566,407.733,309.581z" fill="#ff6138"/><path d="M484.005,234.393h-20.308c-3.379-52.169-25.56-101.091-62.745-138.146c-37.189-37.062-86.201-59.073-138.401-62.267V12.938   C262.551,5.804,256.746,0,249.61,0h-2.279c-7.134,0-12.938,5.804-12.938,12.938v21.129c-51.87,3.55-100.518,25.714-137.373,62.698   c-36.861,36.99-58.855,85.727-62.219,137.628H12.938C5.804,234.393,0,240.197,0,247.332v2.279c0,7.135,5.804,12.938,12.938,12.938   h21.866c3.364,51.9,25.359,100.637,62.219,137.626c36.854,36.983,85.501,59.148,137.37,62.697v21.131   c0,7.135,5.804,12.94,12.938,12.94h2.279c7.136,0,12.94-5.805,12.94-12.94v-21.046c52.198-3.193,101.211-25.205,138.4-62.266   c37.185-37.054,59.366-85.976,62.746-138.143h20.308c7.135,0,12.939-5.804,12.939-12.938v-2.279   C496.943,240.197,491.14,234.393,484.005,234.393z M455.182,234.393h-10.268c-3.351-47.161-23.571-91.378-57.216-124.894   c-33.65-33.522-77.955-53.575-125.148-56.741V42.493C364.841,49.058,448.238,132.14,455.182,234.393z M404.419,262.55h31.979   c-6.874,93.283-80.524,166.626-173.847,173.116v-31.248c0-7.134-5.805-12.938-12.94-12.938h-2.279   c-7.134,0-12.938,5.804-12.938,12.938v31.132c-92.48-7.212-165.461-80.491-172.292-173h30.424c7.134,0,12.938-5.804,12.938-12.938   v-2.279c0-7.135-5.804-12.939-12.938-12.939H62.103c6.83-92.513,79.81-165.795,172.29-173.007v31.138   c0,7.135,5.804,12.939,12.938,12.939h2.279c7.136,0,12.94-5.805,12.94-12.939V61.272c93.324,6.49,166.975,79.836,173.848,173.121   h-31.98c-7.135,0-12.938,5.805-12.938,12.939v2.279C391.481,256.746,397.284,262.55,404.419,262.55z M242.893,12.938   c0-2.447,1.991-4.438,4.438-4.438h2.279c2.448,0,4.44,1.99,4.44,4.438v79.586c0,2.448-1.992,4.439-4.44,4.439h-2.279   c-2.447,0-4.438-1.991-4.438-4.439V12.938z M234.393,42.583v10.283c-46.861,3.518-90.802,23.718-124.118,57.159   c-33.322,33.447-53.356,77.477-56.688,124.367H43.315C50.217,131.239,131.276,49.87,234.393,42.583z M8.5,249.611v-2.279   c0-2.448,1.991-4.439,4.438-4.439h79.586c2.447,0,4.438,1.991,4.438,4.439v2.279c0,2.447-1.991,4.438-4.438,4.438H12.938   C10.491,254.05,8.5,252.059,8.5,249.611z M43.319,262.55h10.265c3.334,46.89,23.368,90.917,56.691,124.363   c33.316,33.439,77.257,53.639,124.118,57.156v10.287C131.28,447.07,50.223,365.704,43.319,262.55z M254.051,484.004   c0,2.448-1.992,4.44-4.44,4.44h-2.279c-2.447,0-4.438-1.991-4.438-4.44v-79.586c0-2.447,1.991-4.438,4.438-4.438h2.279   c2.448,0,4.44,1.99,4.44,4.438V484.004z M262.551,454.444V444.18c47.191-3.166,91.495-23.218,125.146-56.739   c33.646-33.516,53.866-77.732,57.217-124.891h10.269C448.236,364.8,364.839,447.88,262.551,454.444z M488.443,249.611   c0,2.447-1.991,4.438-4.439,4.438h-79.586c-2.447,0-4.438-1.991-4.438-4.438v-2.279c0-2.448,1.991-4.439,4.438-4.439h79.586   c2.447,0,4.439,1.991,4.439,4.439V249.611z" fill="#ff6138"/></g><g transform="matrix(0.12153252214193344 0 0 0.12153252214193344 91 249)" id="L1_7"><path d="M417.724,94.564c-0.046-0.073-0.107-0.151-0.197-0.241l-93.08-93.078C323.65,0.448,322.568,0,321.441,0H89.076   c-7.804,0-14.152,6.348-14.152,14.15v465.393c0,7.804,6.349,14.152,14.152,14.152h315.543c7.804,0,14.152-6.349,14.152-14.152   V97.328C418.772,96.306,418.387,95.333,417.724,94.564z M325.691,14.511l39.285,39.284l39.284,39.283h-72.917   c-3.117,0-5.652-2.535-5.652-5.652V14.511z M404.619,485.195H89.076c-3.117,0-5.652-2.536-5.652-5.652V427.43h75.422   c2.348,0,4.25-1.902,4.25-4.25c0-2.348-1.902-4.25-4.25-4.25H83.424v-49.5h195.422c2.348,0,4.25-1.902,4.25-4.25   c0-2.348-1.902-4.25-4.25-4.25H83.424V51.43h105.422c2.348,0,4.25-1.902,4.25-4.25c0-2.348-1.902-4.25-4.25-4.25H83.424V14.15   c0-3.115,2.535-5.65,5.652-5.65h228.115v78.926c0,7.804,6.349,14.152,14.152,14.152h78.928V438.93H262.846   c-2.348,0-4.25,1.902-4.25,4.25c0,2.348,1.902,4.25,4.25,4.25h147.426v32.113C410.272,482.659,407.736,485.195,404.619,485.195z" fill="#ff6138"/><path d="M321.761,256.968l28.465-28.465c6.945-6.944,6.945-18.245,0-25.189l-90.782-90.781c-3.364-3.365-7.837-5.218-12.595-5.218   c-4.758,0-9.23,1.853-12.595,5.218l-90.784,90.781c-6.945,6.944-6.945,18.245,0,25.189l28.469,28.469   c0.797,0.797,1.878,1.245,3.005,1.245c1.127,0,2.208-0.448,3.005-1.245l37.526-37.525l-0.002,91.376   c0,9.822,7.99,17.813,17.813,17.813h27.125c9.821,0,17.812-7.99,17.812-17.813l0.001-91.382l37.528,37.527   C317.409,258.628,320.103,258.628,321.761,256.968z M276.978,206.175c-1.215-1.216-3.044-1.579-4.631-0.922   c-1.589,0.658-2.624,2.208-2.624,3.927l-0.001,101.643c0,5.135-4.177,9.313-9.312,9.313h-27.125c-5.135,0-9.313-4.178-9.313-9.313   l0.002-101.637c0-1.719-1.035-3.269-2.623-3.927c-0.526-0.218-1.078-0.323-1.626-0.323c-1.106,0-2.193,0.432-3.006,1.245   l-41.776,41.775l-25.464-25.463c-3.631-3.631-3.631-9.539,0-13.17l90.784-90.781c1.76-1.759,4.098-2.728,6.585-2.728   c2.487,0,4.825,0.969,6.585,2.728l90.782,90.781c3.631,3.631,3.631,9.539,0,13.17l-25.46,25.459L276.978,206.175z" fill="#ff6138"/></g><g transform="matrix(0.12084592133760452 0 0 0.12084592133760452 223 278)" id="L1_8"><path d="M52.08,187.29c0-38.576,15.022-74.842,42.299-102.119c1.66-1.66,1.66-4.351,0-6.011c-1.66-1.659-4.351-1.659-6.011,0   C59.486,108.043,43.58,146.444,43.58,187.29c0,40.846,15.906,79.247,44.789,108.129c0.83,0.83,1.917,1.245,3.005,1.245   c1.088,0,2.175-0.415,3.005-1.245c1.66-1.66,1.66-4.351,0-6.011C67.102,262.132,52.08,225.865,52.08,187.29z" fill="#ff6138"/><path d="M196.499,61.259c-33.664,0-65.313,13.11-89.117,36.914c-23.804,23.804-36.914,55.454-36.914,89.117   c0,33.664,13.109,65.313,36.914,89.117c23.804,23.804,55.454,36.913,89.117,36.913s65.312-13.109,89.116-36.913   c23.805-23.804,36.914-55.454,36.914-89.117c0-33.663-13.109-65.313-36.914-89.117C261.811,74.369,230.163,61.259,196.499,61.259z    M265.676,92.252H127.322c19.971-14.602,43.966-22.493,69.177-22.493C221.709,69.759,245.704,77.65,265.676,92.252z    M113.393,104.183c1.174-1.174,2.373-2.314,3.587-3.432h159.039c1.214,1.118,2.413,2.258,3.587,3.432   c18.064,18.064,29.001,40.594,32.824,64.068H287.5v-12.75c0-7.857-6.393-14.25-14.25-14.25h-166c-7.857,0-14.25,6.393-14.25,14.25   v12.75H80.569C84.391,144.778,95.329,122.247,113.393,104.183z M279,189.502c0,3.171-2.579,5.75-5.75,5.75h-166   c-3.17,0-5.75-2.579-5.75-5.75v-34c0-3.17,2.58-5.75,5.75-5.75h166c3.171,0,5.75,2.58,5.75,5.75V189.502z M279.605,270.396   c-22.199,22.199-51.713,34.424-83.106,34.424c-31.394,0-60.908-12.225-83.106-34.424c-5.499-5.5-10.332-11.417-14.511-17.645   h195.236C289.938,258.98,285.105,264.897,279.605,270.396z M299.315,244.252H93.684c-11.52-20.813-16.246-44.404-14.185-67.5H93   v12.75c0,7.858,6.393,14.25,14.25,14.25h166c7.857,0,14.25-6.392,14.25-14.25v-12.75h25.999   C315.56,199.847,310.834,223.439,299.315,244.252z" fill="#ff6138"/><path d="M496.5,172.502c0-2.347-1.902-4.25-4.25-4.25H372.222c-2.547-23.928-9.875-46.804-21.532-67.5h141.56   c2.348,0,4.25-1.903,4.25-4.25c0-2.347-1.902-4.25-4.25-4.25H345.577c-6.85-10.699-14.904-20.738-24.103-29.937   c-33.382-33.382-77.766-51.767-124.975-51.767c-47.209,0-91.593,18.384-124.975,51.766c-9.266,9.266-17.274,19.319-24.048,29.937   H4.25c-2.347,0-4.25,1.903-4.25,4.25c0,2.347,1.903,4.25,4.25,4.25h38.127c-11.826,21.079-18.99,44.084-21.505,67.5H4.25   c-2.347,0-4.25,1.903-4.25,4.25c0,2.347,1.903,4.25,4.25,4.25h15.914c-1.347,22.748,1.67,45.705,9.053,67.5H4.25   c-2.347,0-4.25,1.903-4.25,4.25c0,2.347,1.903,4.25,4.25,4.25h28.09c8.611,21.683,21.666,41.996,39.184,59.514   c33.382,33.382,77.766,51.766,124.976,51.766c29.505,0,57.906-7.181,83.208-20.716l138.458,138.47   c2.778,2.778,6.427,4.167,10.076,4.167c3.648,0,7.299-1.389,10.076-4.167l52.676-52.676c2.691-2.691,4.174-6.27,4.174-10.076   c0-3.806-1.482-7.385-4.174-10.077L352.528,270.491c3.08-5.759,5.819-11.683,8.232-17.739h131.49c2.348,0,4.25-1.903,4.25-4.25   c0-2.347-1.902-4.25-4.25-4.25H363.894c6.142-18.103,9.347-37.285,9.347-56.962c0-3.53-0.115-7.042-0.319-10.538H492.25   C494.598,176.752,496.5,174.849,496.5,172.502z M486.667,419.033c0,1.536-0.598,2.979-1.684,4.065l-52.676,52.676   c-2.242,2.242-5.891,2.242-8.133,0.001L414.3,465.9l60.808-60.808l9.875,9.875C486.069,416.053,486.667,417.497,486.667,419.033z    M469.098,399.081l-42.296,42.296l-25.547-25.547c-1.66-1.659-4.352-1.659-6.01,0c-1.66,1.66-1.66,4.351,0,6.011l25.546,25.547   l-12.501,12.502L287.372,338.96c12.268-7.38,23.718-16.311,34.102-26.695c3.445-3.445,6.722-7.015,9.845-10.686l100.427,100.427   c0.829,0.83,1.917,1.245,3.005,1.245s2.176-0.415,3.005-1.245c1.66-1.66,1.66-4.351,0-6.011L336.698,294.94   c4.161-5.396,7.994-10.996,11.476-16.784L469.098,399.081z M354.008,246.641c-0.121,0.249-0.219,0.509-0.29,0.783   c-8.334,21.814-21.247,41.823-38.254,58.831c-31.777,31.777-74.026,49.277-118.965,49.277c-44.939,0-87.189-17.5-118.965-49.277   c-65.598-65.597-65.598-172.332,0-237.93c31.776-31.777,74.025-49.277,118.964-49.277c44.939,0,87.188,17.501,118.965,49.277   c31.776,31.776,49.276,74.026,49.276,118.964C364.74,207.89,361.053,227.921,354.008,246.641z" fill="#ff6138"/></g><g transform="matrix(0.12220531702041626 0 0 0.12220531702041626 301 55)" id="L1_9"><path d="M476.238,307.612V53.419c8.35-1.402,14.738-8.662,14.738-17.403c0-9.742-7.926-17.668-17.668-17.668H17.668   C7.926,18.348,0,26.274,0,36.016c0,8.742,6.389,16.001,14.738,17.403v254.192C6.389,309.014,0,316.274,0,325.016   c0,9.742,7.926,17.667,17.668,17.667h141.324L93.216,466.382c-1.101,2.073-0.314,4.646,1.758,5.748   c0.636,0.338,1.318,0.498,1.991,0.498c1.521,0,2.992-0.819,3.757-2.255l67.835-127.69h78.162v125.694c0,2.347,1.902,4.25,4.25,4.25   c2.348,0,4.25-1.903,4.25-4.25V342.683h78.077l67.92,127.69c0.765,1.436,2.235,2.255,3.757,2.255c0.673,0,1.355-0.161,1.991-0.498   c2.072-1.102,2.859-3.675,1.758-5.748l-65.776-123.699h130.363c9.742,0,17.668-7.925,17.668-17.667   C490.977,316.274,484.588,309.014,476.238,307.612z M23.238,290.835h57.775c2.348,0,4.25-1.903,4.25-4.25   c0-2.347-1.902-4.25-4.25-4.25H23.238V76.345h72.641c2.348,0,4.25-1.903,4.25-4.25c0-2.347-1.902-4.25-4.25-4.25H23.238V53.683   h444.5v216.652H324.002c-2.348,0-4.25,1.903-4.25,4.25c0,2.347,1.902,4.25,4.25,4.25h143.736v28.513h-444.5V290.835z M8.5,36.016   c0-5.055,4.112-9.168,9.168-9.168h455.641c5.056,0,9.168,4.113,9.168,9.168c0,5.055-4.112,9.167-9.168,9.167H17.668   C12.612,45.183,8.5,41.071,8.5,36.016z M473.309,334.183H17.668c-5.056,0-9.168-4.112-9.168-9.167c0-5.055,4.112-9.168,9.168-9.168   h455.641c5.056,0,9.168,4.113,9.168,9.168C482.477,330.071,478.364,334.183,473.309,334.183z" fill="#ff6138"/><path d="M151.969,89.127c-50.867,0-92.25,41.383-92.25,92.25s41.383,92.25,92.25,92.25s92.25-41.383,92.25-92.25   S202.836,89.127,151.969,89.127z M147.719,97.735v80.266l-78.167,18.157c-0.859-4.802-1.333-9.735-1.333-14.781   C68.219,136.623,103.506,99.956,147.719,97.735z M71.474,204.439l70.878-16.465l-40.863,60.177   C87.225,237.34,76.533,222.071,71.474,204.439z M151.969,265.127c-15.902,0-30.782-4.457-43.46-12.185l45.157-66.499l76.102,25.88   C217.431,243.225,187.219,265.127,151.969,265.127z M232.51,204.278l-76.291-25.945V97.735c44.213,2.221,79.5,38.888,79.5,83.642   C235.719,189.318,234.584,196.994,232.51,204.278z" fill="#ff6138"/><path d="M283.469,138.627h133.5c2.348,0,4.25-1.903,4.25-4.25c0-2.347-1.902-4.25-4.25-4.25h-133.5c-2.348,0-4.25,1.903-4.25,4.25   C279.219,136.725,281.121,138.627,283.469,138.627z" fill="#ff6138"/><path d="M421.219,209.377c0-2.347-1.902-4.25-4.25-4.25h-133.5c-2.348,0-4.25,1.903-4.25,4.25c0,2.347,1.902,4.25,4.25,4.25h133.5   C419.316,213.627,421.219,211.725,421.219,209.377z" fill="#ff6138"/></g></defs><g fi:class="KUsePattern"><pattern id="pattern_L1_7" width="350" height="350" patternUnits="userSpaceOnUse"><use xlink:href="#L1_7" x="-350" y="-350"/><use xlink:href="#L1_7" x="0" y="-350"/><use xlink:href="#L1_7" x="350" y="-350"/><use xlink:href="#L1_7" x="-350" y="0"/><use xlink:href="#L1_7" x="0" y="0"/><use xlink:href="#L1_7" x="350" y="0"/><use xlink:href="#L1_7" x="-350" y="350"/><use xlink:href="#L1_7" x="0" y="350"/><use xlink:href="#L1_7" x="350" y="350"/></pattern><rect x="0" y="0" width="100%" height="100%" fill="url(#pattern_L1_7)"/></g><g fi:class="KUsePattern"><pattern id="pattern_L1_8" width="350" height="350" patternUnits="userSpaceOnUse"><use xlink:href="#L1_8" x="-350" y="-350"/><use xlink:href="#L1_8" x="0" y="-350"/><use xlink:href="#L1_8" x="350" y="-350"/><use xlink:href="#L1_8" x="-350" y="0"/><use xlink:href="#L1_8" x="0" y="0"/><use xlink:href="#L1_8" x="350" y="0"/><use xlink:href="#L1_8" x="-350" y="350"/><use xlink:href="#L1_8" x="0" y="350"/><use xlink:href="#L1_8" x="350" y="350"/></pattern><rect x="0" y="0" width="100%" height="100%" fill="url(#pattern_L1_8)"/></g><g fi:class="KUsePattern"><pattern id="pattern_L1_9" width="350" height="350" patternUnits="userSpaceOnUse"><use xlink:href="#L1_9" x="-350" y="-350"/><use xlink:href="#L1_9" x="0" y="-350"/><use xlink:href="#L1_9" x="350" y="-350"/><use xlink:href="#L1_9" x="-350" y="0"/><use xlink:href="#L1_9" x="0" y="0"/><use xlink:href="#L1_9" x="350" y="0"/><use xlink:href="#L1_9" x="-350" y="350"/><use xlink:href="#L1_9" x="0" y="350"/><use xlink:href="#L1_9" x="350" y="350"/></pattern><rect x="0" y="0" width="100%" height="100%" fill="url(#pattern_L1_9)"/></g><g fi:class="KUsePattern" transform="matrix(1 0 0 1 20 20)"><pattern id="pattern_UNKNOWN" width="350" height="350" patternUnits="userSpaceOnUse"><use xlink:href="#UNKNOWN" x="-350" y="-350"/><use xlink:href="#UNKNOWN" x="0" y="-350"/><use xlink:href="#UNKNOWN" x="350" y="-350"/><use xlink:href="#UNKNOWN" x="-350" y="0"/><use xlink:href="#UNKNOWN" x="0" y="0"/><use xlink:href="#UNKNOWN" x="350" y="0"/><use xlink:href="#UNKNOWN" x="-350" y="350"/><use xlink:href="#UNKNOWN" x="0" y="350"/><use xlink:href="#UNKNOWN" x="350" y="350"/></pattern><rect x="0" y="0" width="100%" height="100%" fill="url(#pattern_UNKNOWN)"/></g></svg>