<?xml version="1.0"?>
<svg xmlns="http://www.w3.org/2000/svg" id="Layer_5" enable-background="new 0 0 64 64" height="512px" viewBox="0 0 64 64" width="512px"><g><g><path d="m11 19c0-.628-.129-1.224-.342-1.779l2.754-1.753c.91.941 2.179 1.532 3.588 1.532 1.846 0 3.444-1.017 4.31-2.51l1.768.59c-.047.301-.078.606-.078.92 0 3.309 2.691 6 6 6 1.718 0 3.266-.73 4.361-1.891l3.877 2.585c-.144.411-.238.846-.238 1.306 0 2.206 1.794 4 4 4s4-1.794 4-4c0-.898-.308-1.719-.809-2.387l4.637-5.797c-.572-.351-1.099-.768-1.564-1.247l-4.63 5.788c-.5-.225-1.051-.357-1.634-.357-1.022 0-1.945.397-2.653 1.029l-3.874-2.583c.336-.748.527-1.574.527-2.446 0-3.309-2.691-6-6-6-2.29 0-4.283 1.291-5.294 3.182l-1.766-.589c.024-.197.06-.39.06-.593 0-2.757-2.243-5-5-5s-5 2.243-5 5c0 .629.129 1.224.342 1.779l-2.754 1.753c-.91-.941-2.179-1.532-3.588-1.532-2.757 0-5 2.243-5 5s2.243 5 5 5 5-2.243 5-5z" data-original="#000000" class="active-path" data-old_color="#000000" fill="#FFFFFF"/><path d="m7.849 39.263-1.417-1.417c-.76.876-1.41 1.847-1.936 2.893l1.847.765c.418-.806.925-1.555 1.506-2.241z" data-original="#000000" class="active-path" data-old_color="#000000" fill="#FFFFFF"/><path d="m13.351 35.577c.847-.271 1.732-.453 2.649-.529v-1.997c-1.185.084-2.33.312-3.416.674z" data-original="#000000" class="active-path" data-old_color="#000000" fill="#FFFFFF"/><path d="m11.502 36.338-.763-1.842c-1.046.526-2.016 1.175-2.893 1.936l1.418 1.418c.686-.582 1.432-1.095 2.238-1.512z" data-original="#000000" class="active-path" data-old_color="#000000" fill="#FFFFFF"/><path d="m21.416 33.725c-1.086-.362-2.231-.59-3.416-.674v1.997c.917.076 1.802.258 2.649.529z" data-original="#000000" class="active-path" data-old_color="#000000" fill="#FFFFFF"/><path d="m3.051 46h1.991c.076-.917.267-1.801.539-2.648l-1.855-.768c-.363 1.086-.591 2.23-.675 3.416z" data-original="#000000" class="active-path" data-old_color="#000000" fill="#FFFFFF"/><path d="m19 31.139v-10.139h-4v10.139c.657-.083 1.321-.139 2-.139s1.343.056 2 .139z" data-original="#000000" class="active-path" data-old_color="#000000" fill="#FFFFFF"/><path d="m39 32h4v10h-4z" data-original="#000000" class="active-path" data-old_color="#000000" fill="#FFFFFF"/><path d="m29.504 40.739c-.526-1.046-1.175-2.016-1.936-2.893l-1.417 1.417c.581.686 1.089 1.435 1.505 2.24z" data-original="#000000" class="active-path" data-old_color="#000000" fill="#FFFFFF"/><path d="m22.498 36.338c.805.417 1.551.93 2.238 1.512l1.418-1.418c-.876-.76-1.847-1.41-2.893-1.936z" data-original="#000000" class="active-path" data-old_color="#000000" fill="#FFFFFF"/><path d="m55 21h-4v21h3.181l.819.307z" data-original="#000000" class="active-path" data-old_color="#000000" fill="#FFFFFF"/><path d="m37 44h16v2h-16z" data-original="#000000" class="active-path" data-old_color="#000000" fill="#FFFFFF"/><path d="m37 48h16v2h-16z" data-original="#000000" class="active-path" data-old_color="#000000" fill="#FFFFFF"/><path d="m60.711 46.584-5.711-2.141v5.114l5.712-2.142c.172-.064.288-.231.288-.415s-.116-.351-.289-.416z" data-original="#000000" class="active-path" data-old_color="#000000" fill="#FFFFFF"/><path d="m28.42 43.352c.272.848.463 1.731.539 2.648h1.991c-.084-1.186-.312-2.33-.674-3.417z" data-original="#000000" class="active-path" data-old_color="#000000" fill="#FFFFFF"/><path d="m27 47c0-5.514-4.486-10-10-10s-10 4.486-10 10v1h-3.949c.516 7.253 6.567 13 13.949 13s13.433-5.747 13.949-13h-3.949zm-10 11c-1.657 0-3-1.343-3-3 0-.885.39-1.672 1-2.221v-7.95c0-1.811.719-3.548 2-4.828 1.281 1.281 2 3.017 2 4.828v7.95c.61.549 1 1.336 1 2.221 0 1.657-1.343 3-3 3z" data-original="#000000" class="active-path" data-old_color="#000000" fill="#FFFFFF"/><path d="m33 47c0 1.026-.106 2.027-.292 3h2.292v-6h-2.292c.186.973.292 1.974.292 3z" data-original="#000000" class="active-path" data-old_color="#000000" fill="#FFFFFF"/><path d="m27 34.53c1.621 1.303 2.985 2.911 4 4.741v-13.271h-4z" data-original="#000000" class="active-path" data-old_color="#000000" fill="#FFFFFF"/><path d="m53 15c3.309 0 6-2.691 6-6s-2.691-6-6-6-6 2.691-6 6 2.691 6 6 6zm0-9c1.657 0 3 1.343 3 3s-1.343 3-3 3-3-1.343-3-3 1.343-3 3-3z" data-original="#000000" class="active-path" data-old_color="#000000" fill="#FFFFFF"/></g></g> </svg>
