<?xml version="1.0"?>
<svg xmlns="http://www.w3.org/2000/svg" height="512px" viewBox="0 0 512 512.00056" width="512px" class="hovered-paths"><g><path d="m219.429688 310.859375h73.152343v36.570313h-73.152343zm0 0" data-original="#000000" class="hovered-path active-path" data-old_color="#000000" fill="#FFFFFF"/><path d="m475.492188 454.875-.058594-345.136719-.003906-.023437.003906-.023438-.003906-29.234375c-4.4375-1.015625-16.660157-3.625-33.472657-6.535156-19.34375-3.320313-38.90625-5.21875-58.527343-5.675781 20.867187 52.367187 7.460937 112.175781-33.769532 150.621094-18.574218 16.664062-29.332031 40.339843-29.660156 65.292968v8.410156c-.023438 6.503907-3.507812 12.5-9.140625 15.742188v39.117188c-.027344 6.789062-3.820313 13-9.851563 16.125-2.910156 18.910156-17.296874 34.007812-36.046874 37.824218.078124.300782.136718.601563.183593.90625v55.667969c43.636719-33.476563 159.730469-13.808594 210.347657-3.078125zm-35.902344-83.492188c.441406-1.117187 1.09375-2.140624 1.917968-3.015624.890626-.808594 1.910157-1.457032 3.019532-1.921876 3.402344-1.4375 7.335937-.679687 9.964844 1.921876.828124.871093 1.476562 1.898437 1.917968 3.015624.46875 1.101563.71875 2.28125.734375 3.476563.027344 1.199219-.222656 2.386719-.734375 3.472656-.464844 1.105469-1.113281 2.125-1.917968 3.015625-3.605469 3.535156-9.378907 3.535156-12.984376 0-.804687-.890625-1.453124-1.910156-1.917968-3.015625-.976563-2.214843-.976563-4.734375 0-6.949219zm-46.445313-5.667968h27.425781c5.050782 0 9.144532 4.09375 9.144532 9.144531 0 5.046875-4.09375 9.140625-9.144532 9.140625h-27.425781c-5.050781 0-9.144531-4.09375-9.144531-9.140625 0-5.050781 4.09375-9.144531 9.144531-9.144531zm-9.144531 36.570312h64c5.050781 0 9.144531 4.09375 9.144531 9.144532 0 5.050781-4.09375 9.140624-9.144531 9.140624h-64c-5.050781 0-9.140625-4.089843-9.140625-9.140624 0-5.050782 4.089844-9.144532 9.140625-9.144532zm-64 0h27.429688c5.046874 0 9.140624 4.09375 9.140624 9.144532 0 5.050781-4.09375 9.140624-9.140624 9.140624h-27.429688c-5.050781 0-9.140625-4.089843-9.140625-9.140624 0-5.050782 4.089844-9.144532 9.140625-9.144532zm0 0" data-original="#000000" class="hovered-path active-path" data-old_color="#000000" fill="#FFFFFF"/><path d="m301.714844 284.160156c.304687-30.023437 13.164062-58.546875 35.464844-78.652344 23.882812-22.300781 37.515624-53.46875 37.675781-86.144531.164062-32.679687-13.15625-63.976562-36.820313-86.515625-22.039062-21.164062-51.433594-32.941406-81.988281-32.847656-1.929687 0-3.867187.046875-5.804687.132812-41.507813 2.09375-78.921876 25.675782-98.707032 62.222657-.050781.121093-.132812.21875-.1875.339843-7.601562 13.988282-12.269531 29.382813-13.714844 45.234376-3.441406 36.695312 10.433594 72.898437 37.515626 97.894531 22.066406 20.101562 34.792968 48.464843 35.136718 78.308593v8.4375h91.429688zm-64.730469-24.683594c-.464844 1.105469-1.117187 2.125-1.921875 3.015626-2.617188 2.617187-6.5625 3.378906-9.964844 1.917968-1.109375-.460937-2.128906-1.109375-3.015625-1.917968-.808593-.890626-1.457031-1.910157-1.921875-3.015626-.976562-2.214843-.976562-4.738281 0-6.949218.460938-1.109375 1.113282-2.128906 1.921875-3.019532 3.664063-3.382812 9.316407-3.382812 12.980469 0 .808594.890626 1.457031 1.910157 1.921875 3.019532.976563 2.210937.976563 4.734375 0 6.949218zm54.855469 0c-.464844 1.105469-1.113282 2.125-1.917969 3.015626-.890625.808593-1.910156 1.457031-3.019531 1.917968-3.402344 1.460938-7.347656.699219-9.964844-1.917968-.804688-.890626-1.457031-1.910157-1.921875-3.015626-.976563-2.214843-.976563-4.738281 0-6.949218.464844-1.109375 1.113281-2.128906 1.921875-3.019532 3.667969-3.382812 9.316406-3.382812 12.984375 0 .804687.890626 1.457031 1.910157 1.917969 3.019532.976562 2.210937.976562 4.734375 0 6.949218zm.730468-30.90625c0 5.050782-4.09375 9.144532-9.140624 9.144532-5.050782 0-9.144532-4.09375-9.144532-9.144532v-51.070312l-11.820312 11.820312c-1.714844 1.714844-4.039063 2.679688-6.464844 2.679688s-4.75-.964844-6.464844-2.679688l-11.820312-11.820312v51.070312c0 5.050782-4.09375 9.144532-9.144532 9.144532-5.046874 0-9.140624-4.09375-9.140624-9.144532v-73.140624c0-3.699219 2.226562-7.03125 5.644531-8.445313 3.414062-1.414063 7.347656-.632813 9.960937 1.980469l20.964844 20.964844 20.964844-20.964844c2.613281-2.613282 6.546875-3.394532 9.960937-1.980469 3.417969 1.414063 5.644531 4.746094 5.644531 8.445313zm0 0" data-original="#000000" class="hovered-path active-path" data-old_color="#000000" fill="#FFFFFF"/><path d="m281.742188 365.714844h-51.484376c3.816407 10.949218 14.144532 18.285156 25.742188 18.285156s21.925781-7.335938 25.742188-18.285156zm0 0" data-original="#000000" class="hovered-path active-path" data-old_color="#000000" fill="#FFFFFF"/><path d="m36.570312 454.859375c50.367188-10.675781 165.761719-30.242187 210.289063 2.714844v-55.289063c.042969-.304687.101563-.605468.179687-.90625-18.75-3.816406-33.136718-18.914062-36.046874-37.824218-6.03125-3.125-9.824219-9.335938-9.847657-16.125v-39.117188c-5.636719-3.242188-9.121093-9.238281-9.144531-15.742188v-8.4375c-.339844-24.753906-10.941406-48.261718-29.277344-64.898437-41.535156-38.410156-55.117187-98.441406-34.15625-150.992187-19.621094.460937-39.179687 2.355468-58.523437 5.679687-16.808594 2.910156-29.035157 5.515625-33.507813 6.507813v29.121093c0 .058594.035156.105469.035156.164063s-.03125.105468-.035156.164062zm128-52.574219h27.429688c5.050781 0 9.144531 4.09375 9.144531 9.144532 0 5.050781-4.09375 9.140624-9.144531 9.140624h-27.429688c-5.046874 0-9.140624-4.089843-9.140624-9.140624 0-5.050782 4.09375-9.144532 9.140624-9.144532zm-73.140624-36.570312h27.429687c5.046875 0 9.140625 4.09375 9.140625 9.144531 0 5.046875-4.09375 9.140625-9.140625 9.140625h-27.429687c-5.050782 0-9.144532-4.09375-9.144532-9.140625 0-5.050781 4.09375-9.144531 9.144532-9.144531zm-35.839844 5.667968c.441406-1.117187 1.09375-2.144531 1.917968-3.015624 2.628907-2.601563 6.5625-3.359376 9.964844-1.921876 1.109375.464844 2.128906 1.113282 3.019532 1.921876.824218.875 1.476562 1.898437 1.917968 3.015624.980469 2.214844.980469 4.734376 0 6.949219-.464844 1.105469-1.113281 2.125-1.917968 3.015625-3.605469 3.535156-9.378907 3.535156-12.984376 0-.804687-.890625-1.453124-1.910156-1.917968-3.015625-.511719-1.085937-.761719-2.273437-.730469-3.472656.011719-1.195313.261719-2.375.730469-3.476563zm8.410156 30.902344h64c5.050781 0 9.144531 4.09375 9.144531 9.144532 0 5.050781-4.09375 9.140624-9.144531 9.140624h-64c-5.050781 0-9.140625-4.089843-9.140625-9.140624 0-5.050782 4.089844-9.144532 9.140625-9.144532zm0 0" data-original="#000000" class="hovered-path active-path" data-old_color="#000000" fill="#FFFFFF"/><path d="m502.859375 118.859375h-9.144531v336c.019531 5.585937-2.515625 10.878906-6.882813 14.363281-4.28125 3.433594-9.890625 4.730469-15.242187 3.519532-78.355469-16.617188-178.207032-25.285157-201.375 5.042968-3.417969 4.390625-8.671875 6.957032-14.238282 6.949219-5.5625-.007813-10.8125-2.585937-14.21875-6.984375-23.128906-30.285156-122.988281-21.625-201.464843-4.980469-5.316407 1.167969-10.878907-.132812-15.125-3.546875-4.367188-3.484375-6.902344-8.777344-6.882813-14.363281v-336h-9.140625c-5.050781 0-9.14062475 4.09375-9.144531 9.140625v356.570312c.00390625 5.050782 4.09375 9.140626 9.144531 9.144532h193.570313c7.277344-.019532 14.261718 2.875 19.394531 8.035156l7.570313 7.570312c1.71875 1.710938 4.039062 2.671876 6.464843 2.679688h39.714844c2.421875-.007812 4.746094-.96875 6.460937-2.679688l7.574219-7.570312c5.128907-5.160156 12.113281-8.054688 19.390625-8.035156h193.574219c5.046875-.003906 9.136719-4.09375 9.140625-9.144532v-356.570312c-.003906-5.046875-4.09375-9.140625-9.140625-9.140625zm0 0" data-original="#000000" class="hovered-path active-path" data-old_color="#000000" fill="#FFFFFF"/></g> </svg>
