<?xml version="1.0"?>
<svg xmlns="http://www.w3.org/2000/svg" height="512px" viewBox="-16 0 384 384" width="512px" class=""><g><path d="m96 328h64v56h32v-56h160v-32h-64v-40h64v-256h-352v256h64v40h-64v32zm64-32h-64v-40h64zm96 0h-64v-40h64zm-224-72v-192h288v192zm0 0" data-original="#000000" class="active-path" data-old_color="#000000" fill="#FFFFFF"/><path d="m96 160h32v32h32v-128h-96v128h32zm0-64h32v32h-32zm0 0" data-original="#000000" class="active-path" data-old_color="#000000" fill="#FFFFFF"/><path d="m288 144v-32c0-26.472656-21.527344-48-48-48h-48v128h48c26.472656 0 48-21.527344 48-48zm-64-48h16c8.824219 0 16 7.175781 16 16v32c0 8.824219-7.175781 16-16 16h-16zm0 0" data-original="#000000" class="active-path" data-old_color="#000000" fill="#FFFFFF"/></g> </svg>
