<?xml version="1.0"?>
<svg xmlns="http://www.w3.org/2000/svg" xmlns:xlink="http://www.w3.org/1999/xlink" version="1.1" id="Capa_1" x="0px" y="0px" viewBox="0 0 511.999 511.999" style="enable-background:new 0 0 511.999 511.999;" xml:space="preserve" width="512px" height="512px" class="hovered-paths"><g><g>
	<g>
		<path d="M494.735,142.672h-14.987v323.335c0,8.279-6.711,14.99-14.99,14.99H145.707v14.856c0,8.917,7.229,16.146,16.146,16.146    h332.622c8.279,0,14.99-6.711,14.99-14.99V157.402C509.465,149.267,502.87,142.672,494.735,142.672z" data-original="#000000" class="hovered-path active-path" data-old_color="#000000" fill="#FFFFFF"/>
	</g>
</g><g>
	<g>
		<path d="M435.739,59.71h-15.951v346.337c0,7.295-5.213,13.366-12.115,14.708H63.522v16.233c0,7.748,6.281,14.029,14.029,14.029    h372.218V73.739C449.768,65.991,443.487,59.71,435.739,59.71z" data-original="#000000" class="hovered-path active-path" data-old_color="#000000" fill="#FFFFFF"/>
	</g>
</g><g>
	<g>
		<path d="M374.752,0H22.601C11.518,0,2.534,8.984,2.534,20.066v350.521c0,11.443,9.276,20.719,20.719,20.719H388.78V14.029    C388.781,6.281,382.5,0,374.752,0z M195.658,85.768c39.754,0,72.096,32.342,72.096,72.095c0,39.753-32.342,72.096-72.096,72.096    c-39.754,0-72.096-32.343-72.096-72.096C123.562,118.11,155.904,85.768,195.658,85.768z M292.094,295.133H99.222    c-8.279,0-14.99-6.711-14.99-14.99s6.711-14.99,14.99-14.99h192.872c8.279,0,14.99,6.711,14.99,14.99    S300.372,295.133,292.094,295.133z" data-original="#000000" class="hovered-path active-path" data-old_color="#000000" fill="#FFFFFF"/>
	</g>
</g><g>
	<g>
		<path d="M195.658,115.749c-23.223,0-42.116,18.893-42.116,42.115c0,23.222,18.893,42.116,42.116,42.116    s42.116-18.894,42.116-42.116C237.774,134.642,218.881,115.749,195.658,115.749z" data-original="#000000" class="hovered-path active-path" data-old_color="#000000" fill="#FFFFFF"/>
	</g>
</g></g> </svg>
