<?xml version="1.0"?>
<svg xmlns="http://www.w3.org/2000/svg" xmlns:xlink="http://www.w3.org/1999/xlink" width="512px" height="512px" viewBox="0 0 56 61" version="1.1" class=""><g><defs class="active-path"/><g id="Page-1" stroke="none" stroke-width="1" fill="none" fill-rule="evenodd"><g id="050---Targeting-audience" fill="#000000" fill-rule="nonzero"><path d="M53.573,26.3 L50.216,24.86 C49.8218411,24.6865832 49.4944908,24.3901084 49.283,24.015 C50.9761218,22.9081996 51.9975912,21.0227859 52,19 L52,17 C52,13.6862915 49.3137085,11 46,11 C42.6862915,11 40,13.6862915 40,17 L40,19 C40.0020717,21.0231407 41.0235817,22.9090053 42.717,24.016 C42.5060248,24.3907857 42.1794167,24.6872238 41.786,24.861 L38.424,26.3 C38.2778624,26.3730547 38.1362712,26.4548703 38,26.545 L38,18.98 C38.0009105,17.3780032 37.0459268,15.9299851 35.573,15.3 L32.216,13.86 C31.8218411,13.6865832 31.4944908,13.3901084 31.283,13.015 C32.9761218,11.9081996 33.9975912,10.0227859 34,8 L34,6 C33.9999999,2.6862916 31.3137084,2.5288109e-07 28,2.5288109e-07 C24.6862916,2.5288109e-07 22.0000001,2.6862916 22,6 L22,8 C22.0020717,10.0231407 23.0235817,11.9090053 24.717,13.016 C24.5060248,13.3907857 24.1794167,13.6872238 23.786,13.861 L20.427,15.3 C18.9540732,15.9299851 17.9990895,17.3780032 18,18.98 L18,26.548 C17.863189,26.4564694 17.7205528,26.3739608 17.573,26.301 L14.216,24.861 C13.8218411,24.6875832 13.4944908,24.3911084 13.283,24.016 C14.9764183,22.9090053 15.9979283,21.0231407 16,19 L16,17 C16,13.6862915 13.3137085,11 10,11 C6.6862915,11 4,13.6862915 4,17 L4,19 C4.00207174,21.0231407 5.02358174,22.9090053 6.717,24.016 C6.50602483,24.3907857 6.17941672,24.6872238 5.786,24.861 L2.427,26.3 C0.954073242,26.9299851 -0.000910490204,28.3780032 2.66453526e-15,29.98 L2.66453526e-15,42 C2.66453526e-15,42.5522847 0.44771525,43 1,43 L10.051,43 C10.5549805,52.5457443 18.4419608,60.0273054 28.001,60.0273054 C37.5600392,60.0273054 45.4470195,52.5457443 45.951,43 L55,43 C55.5522847,43 56,42.5522847 56,42 L56,29.98 C56.0009105,28.3780032 55.0459268,26.9299851 53.573,26.3 Z M42,17 C42,14.790861 43.790861,13 46,13 C48.209139,13 50,14.790861 50,17 L50,19 C50,21.209139 48.209139,23 46,23 C43.790861,23 42,21.209139 42,19 L42,17 Z M41.949,41 C41.4454761,34.0677292 35.9322708,28.5545239 29,28.051 L29,26.051 C37.0342575,26.5634939 43.4365061,32.9657425 43.949,41 L41.949,41 Z M38,43 L39.949,43 C39.4547978,48.8300123 34.8300123,53.4547978 29,53.949 L29,52 C29,51.4477153 28.5522847,51 28,51 C27.4477153,51 27,51.4477153 27,52 L27,53.949 C21.1699877,53.4547978 16.5452022,48.8300123 16.051,43 L18,43 C18.5522847,43 19,42.5522847 19,42 C19,41.4477153 18.5522847,41 18,41 L16.051,41 C16.5452022,35.1699877 21.1699877,30.5452022 27,30.051 L27,32 C27,32.5522847 27.4477153,33 28,33 C28.5522847,33 29,32.5522847 29,32 L29,30.051 C34.8300123,30.5452022 39.4547978,35.1699877 39.949,41 L38,41 C37.4477153,41 37,41.4477153 37,42 C37,42.5522847 37.4477153,43 38,43 Z M12.051,41 C12.5634939,32.9657425 18.9657425,26.5634939 27,26.051 L27,28.051 C20.0677292,28.5545239 14.5545239,34.0677292 14.051,41 L12.051,41 Z M24,6 C24,3.790861 25.790861,2 28,2 C30.209139,2 32,3.790861 32,6 L32,8 C32,10.209139 30.209139,12 28,12 C25.790861,12 24,10.209139 24,8 L24,6 Z M21.214,17.139 L24.575,15.699 C25.4388072,15.3258979 26.1434346,14.6602197 26.565,13.819 C27.5064469,14.0603319 28.4935531,14.0603319 29.435,13.819 C29.8570629,14.6605653 30.5624453,15.3262877 31.427,15.699 L34.786,17.14 C35.5226592,17.4548394 36.0003697,18.1788817 36,18.98 L36.0000002,25.9 C35.3513143,25.5760957 34.6833969,25.2922308 34,25.05 L34,21 C34,20.4477153 33.5522847,20 33,20 C32.4477153,20 32,20.4477153 32,21 L32,24.464 C29.3692176,23.8453195 26.6307824,23.8453195 24,24.464 L24,21 C24,20.4477153 23.5522847,20 23,20 C22.4477153,20 22,20.4477153 22,21 L22,25.05 C21.3166031,25.2922308 20.6486857,25.5760957 19.9999991,25.9 L20,18.98 C19.9992295,18.1785184 20.4770063,17.4539821 21.214,17.139 Z M6,17 C6,14.790861 7.790861,13 10,13 C12.209139,13 14,14.790861 14,17 L14,19 C14,21.209139 12.209139,23 10,23 C7.790861,23 6,21.209139 6,19 L6,17 Z M2,29.98 C1.99922951,29.1785184 2.4770063,28.4539821 3.214,28.139 L6.575,26.7 C7.43880716,26.3268979 8.14343461,25.6612197 8.565,24.82 C9.50644687,25.0613319 10.4935531,25.0613319 11.435,24.82 C11.8570629,25.6615653 12.5624453,26.3272877 13.427,26.7 L16.621,28.069 C12.710891,31.2643407 10.3262133,35.9578366 10.051,41 L6,41 L6,32 C6,31.4477153 5.55228475,31 5,31 C4.44771525,31 4,31.4477153 4,32 L4,41 L1.99999907,41 L2,29.98 Z M12.051,43 L14.051,43 C14.5545239,49.9322708 20.0677292,55.4454761 27,55.949 L27,57.949 C18.9657425,57.4365061 12.5634939,51.0342575 12.051,43 Z M29,57.949 L29,55.949 C35.9322708,55.4454761 41.4454761,49.9322708 41.949,43 L43.949,43 C43.4365061,51.0342575 37.0342575,57.4365061 29,57.949 Z M54.0000018,41 L52,41 L52,32 C52,31.4477153 51.5522847,31 51,31 C50.4477153,31 50,31.4477153 50,32 L50,41 L45.949,41 C45.6740625,35.9574818 43.2893586,31.2635714 39.379,28.068 L42.579,26.699 C43.4428072,26.3258979 44.1474346,25.6602197 44.569,24.819 C45.5104469,25.0603319 46.4975531,25.0603319 47.439,24.819 C47.8610629,25.6605653 48.5664453,26.3262877 49.431,26.699 L52.79,28.14 C53.5250926,28.4560627 54.001055,29.1798403 54,29.98 L54.0000018,41 Z" id="Shape" data-original="#000000" class="active-path" fill="#FFFFFF"/><path d="M34,41 L33.91,41 C33.4805947,38.4874876 31.5125124,36.5194053 29,36.09 L29,36 C29,35.4477153 28.5522847,35 28,35 C27.4477153,35 27,35.4477153 27,36 L27,36.09 C24.4874876,36.5194053 22.5194053,38.4874876 22.09,41 L22,41 C21.4477153,41 21,41.4477153 21,42 C21,42.5522847 21.4477153,43 22,43 L22.09,43 C22.5194053,45.5125124 24.4874876,47.4805947 27,47.91 L27,48 C27,48.5522847 27.4477153,49 28,49 C28.5522847,49 29,48.5522847 29,48 L29,47.91 C31.5125124,47.4805947 33.4805947,45.5125124 33.91,43 L34,43 C34.5522847,43 35,42.5522847 35,42 C35,41.4477153 34.5522847,41 34,41 Z M28.973,45.866 C28.9138208,45.3735276 28.4960153,45.0029231 28,45.0029231 C27.5039847,45.0029231 27.0861792,45.3735276 27.027,45.866 C25.6043526,45.5064883 24.4935117,44.3956474 24.134,42.973 C24.6264724,42.9138208 24.9970769,42.4960153 24.9970769,42 C24.9970769,41.5039847 24.6264724,41.0861792 24.134,41.027 C24.4935117,39.6043526 25.6043526,38.4935117 27.027,38.134 C27.0861792,38.6264724 27.5039847,38.9970769 28,38.9970769 C28.4960153,38.9970769 28.9138208,38.6264724 28.973,38.134 C30.3956474,38.4935117 31.5064883,39.6043526 31.866,41.027 C31.3735276,41.0861792 31.0029231,41.5039847 31.0029231,42 C31.0029231,42.4960153 31.3735276,42.9138208 31.866,42.973 C31.5064883,44.3956474 30.3956474,45.5064883 28.973,45.866 Z" id="Shape" data-original="#000000" class="active-path" fill="#FFFFFF"/><path d="M28.38,41.08 C28.0071307,40.9280583 27.5797286,41.0104019 27.29,41.29 C27.1068415,41.4813584 27.0031874,41.7351323 27,42 C26.9965453,42.1311833 27.0239476,42.2613445 27.08,42.38 C27.1309694,42.5010136 27.201963,42.6125749 27.29,42.71 C27.6843361,43.0967403 28.3156639,43.0967403 28.71,42.71 C28.798037,42.6125749 28.8690306,42.5010136 28.92,42.38 C28.971241,42.2597777 28.99842,42.1306773 29,42 C28.9963165,41.735233 28.8927337,41.4816338 28.71,41.29 C28.6125749,41.201963 28.5010136,41.1309694 28.38,41.08 Z" id="Shape" data-original="#000000" class="active-path" fill="#FFFFFF"/></g></g></g> </svg>
