<?xml version="1.0"?>
<svg xmlns="http://www.w3.org/2000/svg" xmlns:xlink="http://www.w3.org/1999/xlink" version="1.1" id="Capa_1" x="0px" y="0px" viewBox="0 0 512 512" style="enable-background:new 0 0 512 512;" xml:space="preserve" width="512px" height="512px" class=""><g><g>
	<g>
		<path d="M189.077,328.483c28.162-21.365,43.771-58.475,31.924-98.485c-8.135-27.479-30.117-50.099-57.49-58.59    C101.821,152.273,45,198.121,45,257c0,29.253,14.242,55.034,35.923,71.483C33.367,349.39,0,396.807,0,452v45    c0,8.284,6.716,15,15,15h240c8.284,0,15-6.716,15-15v-45C270,396.807,236.633,349.39,189.077,328.483z" data-original="#000000" class="active-path" data-old_color="#000000" fill="#FFFFFF"/>
	</g>
</g><g>
	<g>
		<path d="M497,0H257c-8.291,0-15,6.709-15,15v180c0,8.291,6.709,15,15,15h45v45c0,13.376,16.224,19.987,25.605,10.605L383.211,210    H497c8.291,0,15-6.709,15-15V15C512,6.709,505.291,0,497,0z M432.605,85.605l-60,60c-5.86,5.86-15.351,5.86-21.211,0l-30-30    c-5.859-5.859-5.859-15.352,0-21.211c5.859-5.859,15.352-5.859,21.211,0L362,113.789l49.395-49.395    c5.859-5.859,15.352-5.859,21.211,0S438.465,79.746,432.605,85.605z" data-original="#000000" class="active-path" data-old_color="#000000" fill="#FFFFFF"/>
	</g>
</g></g> </svg>
