<?xml version="1.0"?>
<svg xmlns="http://www.w3.org/2000/svg" id="Capa_1" enable-background="new 0 0 512 512" height="512px" viewBox="0 0 512 512" width="512px" class="hovered-paths"><g><g><path d="m269.493 30c.988 4.849 1.507 9.863 1.507 15v15h241v-30z" data-original="#000000" class="hovered-path active-path" data-old_color="#000000" fill="#FFFFFF"/><path d="m241 45c0-24.813-20.187-45-45-45h-196v377h106.748c7.55-75.694 71.604-135 149.252-135s141.702 59.306 149.252 135h106.748v-287h-271z" data-original="#000000" class="hovered-path active-path" data-old_color="#000000" fill="#FFFFFF"/><path d="m256 272c-66.168 0-120 53.832-120 120s53.832 120 120 120 120-53.832 120-120-53.832-120-120-120zm-23.865 165.988-42.426-42.427 21.213-21.213 21.213 21.213 63.64-63.64 21.213 21.213z" data-original="#000000" class="hovered-path active-path" data-old_color="#000000" fill="#FFFFFF"/></g></g> </svg>
